SplineFontDB: 3.2
FontName: Apple_Univers
FullName: Apple_Univers
FamilyName: Univers
Weight: Regular
Copyright: 
FontLog: "added new glyphs and kerning for lowercase characters"
Version: 
ItalicAngle: 0
UnderlinePosition: 0
UnderlineWidth: 0
Ascent: 800
Descent: 200
InvalidEm: 0
sfntRevision: 0x00010000
LayerCount: 2
Layer: 0 0 "Back" 1
Layer: 1 0 "Fore" 0
XUID: [1021 29 1481517791 22729]
StyleMap: 0x0040
FSType: 0
OS2Version: 3
OS2_WeightWidthSlopeOnly: 0
OS2_UseTypoMetrics: 0
CreationTime: 1734509409
ModificationTime: 1737536620
PfmFamily: 17
TTFWeight: 400
TTFWidth: 5
LineGap: 0
VLineGap: 0
Panose: 2 0 5 3 0 0 0 0 0 0
OS2TypoAscent: 701
OS2TypoAOffset: 0
OS2TypoDescent: -181
OS2TypoDOffset: 0
OS2TypoLinegap: 49
OS2WinAscent: 893
OS2WinAOffset: 0
OS2WinDescent: 262
OS2WinDOffset: 0
HheadAscent: 893
HheadAOffset: 0
HheadDescent: -262
HheadDOffset: 0
OS2SubXSize: 650
OS2SubYSize: 700
OS2SubXOff: 0
OS2SubYOff: 140
OS2SupXSize: 650
OS2SupYSize: 700
OS2SupXOff: 0
OS2SupYOff: 480
OS2StrikeYSize: 49
OS2StrikeYPos: 258
OS2CapHeight: 701
OS2XHeight: 488
OS2Vendor: 'PfEd'
OS2CodePages: 00000001.00000000
OS2UnicodeRanges: 00000001.00000000.00000000.00000000
Lookup: 258 0 0 "'kern' Horizontal Kerning in Latin lookup 0" { "'kern' Horizontal Kerning in Latin lookup 0-1" [150,15,2] } ['kern' ('DFLT' <'dflt' > 'latn' <'dflt' > ) ]
MarkAttachClasses: 1
DEI: 91125

StartChar: .notdef
Encoding: 0 0 0
Width: 254
GlyphClass: 1
Flags: MW
HStem: -360.495 1.69238<0.696289 1.1123>
VStem: 0.696289 0.416016
LayerCount: 2
Fore
SplineSet
0.6962890625 -358.802734375 m 2
 0.0869140625 -358.98046875 -0.0458984375 -359.514648438 0.0126953125 -359.916015625 c 0
 0.1025390625 -360.540039062 0.4140625 -360.7109375 1.1123046875 -360.495117188 c 2
 2.9990234375 -359.916015625 l 2
 3.62890625 -359.715820312 3.845703125 -359.107421875 3.6826171875 -358.586914062 c 0
 3.6005859375 -358.340820312 3.3408203125 -357.985351562 2.701171875 -358.177734375 c 2
 0.6962890625 -358.802734375 l 2
3.4443359375 -358.861328125 m 0
 3.4521484375 -359.025390625 3.458984375 -359.43359375 2.916015625 -359.596679688 c 2
 0.8447265625 -360.236328125 l 2
 0.3984375 -360.376953125 0.302734375 -359.983398438 0.2880859375 -359.833984375 c 0
 0.2587890625 -359.588867188 0.3388671875 -359.248046875 0.7265625 -359.127929688 c 2
 2.814453125 -358.482421875 l 2
 3.20703125 -358.36328125 3.421875 -358.565429688 3.4443359375 -358.861328125 c 0
EndSplineSet
Validated: 524289
EndChar

StartChar: A
Encoding: 65 65 1
Width: 465
GlyphClass: 1
Flags: MW
HStem: 892.129 21G<336.311 410.939 336.311 336.311>
LayerCount: 2
Fore
SplineSet
332.26171875 896.001953125 m 1
 332.26171875 890.896484375 l 1
 -12.89453125 260.77734375 l 1
 -18 254.265625 l 1
 -10.255859375 256.73046875 l 1
 47.30078125 256.73046875 l 1
 52.755859375 252.857421875 l 1
 52.755859375 259.546875 l 1
 139.001953125 425.5234375 l 1
 139.001953125 434.5 l 1
 146.921875 429.396484375 l 1
 327.158203125 429.396484375 l 1
 337.54296875 434.5 l 1
 332.26171875 424.1171875 l 1
 321.876953125 260.77734375 l 1
 316.7734375 252.857421875 l 1
 324.517578125 256.73046875 l 1
 379.609375 256.73046875 l 1
 387.353515625 252.857421875 l 1
 382.072265625 260.77734375 l 1
 414.810546875 888.255859375 l 1
 418.68359375 896.001953125 l 1
 410.939453125 892.12890625 l 1
 336.310546875 892.12890625 l 1
 332.26171875 896.001953125 l 1
361.302734375 851.646484375 m 1
 358.6640625 828.236328125 l 1
 337.54296875 488.18359375 l 1
 341.765625 477.623046875 l 1
 331.029296875 482.904296875 l 1
 175.611328125 482.904296875 l 1
 161.00390625 477.623046875 l 1
 172.97265625 488.18359375 l 1
 353.20703125 828.236328125 l 1
 361.302734375 851.646484375 l 1
EndSplineSet
Validated: 524297
EndChar

StartChar: B
Encoding: 66 66 2
Width: 420
GlyphClass: 1
Flags: MW
HStem: 254.012 53.8047 560.184 47.6172 838.92 53.8262
LayerCount: 2
Fore
SplineSet
206.560546875 895.9375 m 0
 205.606445312 895.4609375 206.657226562 892.341796875 207.984375 888.8359375 c 0
 145.086914062 686.017578125 82.1708984375 483.201171875 19.2734375 280.3828125 c 0
 16.2646484375 272.401367188 15.2041015625 263.463867188 10.95703125 256.1015625 c 0
 4.7626953125 249.99609375 9.3642578125 251.693359375 15.02734375 254.01171875 c 2
 128.609375 254.01171875 l 2
 176.516601562 254.436523438 226.671875 251.662109375 271.46484375 271.5859375 c 0
 313.249023438 290.1875 339.193359375 331.271484375 355.298828125 372.40234375 c 0
 369.668945312 411.247070312 383.296875 451.588867188 383.296875 493.52734375 c 0
 383.5625 524.428710938 369.032226562 556.129882812 341.6015625 571.828125 c 0
 328.983398438 581.03125 313.232421875 582.357421875 298.720703125 586.375 c 1
 327.7109375 586.375 l 1
 355.3125 593.40625 381.1484375 607.350585938 402.00390625 626.767578125 c 0
 432.018554688 653.842773438 448.706054688 692.298828125 456.31640625 731.396484375 c 0
 464.280273438 769.543945312 468.192382812 812.71875 447.46875 847.69140625 c 0
 429.505859375 877.96875 393.06640625 890.622070312 359.546875 892.21484375 c 0
 317.231445312 893.276367188 274.880859375 892.569335938 232.548828125 892.74609375 c 0
 225.328125 893.27734375 217.71875 891.685546875 210.81640625 893.455078125 c 0
 208.426757812 895.55859375 207.1328125 896.223632812 206.560546875 895.9375 c 0
327.7109375 586.375 m 2
 327.673828125 586.366210938 327.637695312 586.353515625 327.6015625 586.34375 c 1
 327.744140625 586.375 l 1
 327.7109375 586.375 l 2
248.646484375 844.755859375 m 0
 250.139648438 844.90625 255.315429688 839.583984375 257.306640625 838.919921875 c 2
 329.513671875 838.919921875 l 1
 329.390625 838.96875 l 1
 348.787109375 838.6328125 369.916992188 838.456054688 387.083984375 828.19140625 c 0
 407.099609375 816.475585938 408.161132812 790.887695312 405.330078125 770.673828125 c 0
 399.84375 735.221679688 389.59765625 699.720703125 370.484375 669.083984375 c 0
 351.530273438 637.833007812 317.885742188 616.526367188 281.5 612.93359375 c 0
 253.802734375 610.456054688 225.947265625 611.87109375 198.1796875 611.517578125 c 0
 191.2421875 612.33203125 184.693359375 610.561523438 178.322265625 607.80078125 c 0
 176.021484375 607.818359375 183.1015625 615.090820312 184.87109375 618.064453125 c 0
 206.072265625 688.060546875 227.274414062 758.056640625 248.4765625 828.0546875 c 0
 250.759765625 832.780273438 250.404296875 837.575195312 248.634765625 842.40625 c 0
 248.059570312 844.047851562 248.1484375 844.706054688 248.646484375 844.755859375 c 0
163.064453125 566.048828125 m 0
 164.482421875 566.208984375 169.659179688 560.84765625 171.650390625 560.18359375 c 2
 242.794921875 560.18359375 l 1
 242.90234375 560.26953125 l 1
 267.271484375 560.301757812 295.180664062 555.327148438 310.578125 534.408203125 c 0
 328.629882812 508.6796875 324.026367188 475.032226562 317.478515625 446.185546875 c 0
 307.885742188 410.796875 297.4453125 374.420898438 276.03125 344.1328125 c 0
 261.32421875 322.577148438 235.91015625 311.002929688 210.390625 309.41015625 c 0
 174.783203125 306.755859375 139.033203125 308.169921875 103.373046875 307.81640625 c 0
 96.400390625 308.966796875 90.20703125 305.728515625 83.8359375 303.109375 c 0
 81.3583984375 302.80859375 88.61328125 310.188476562 90.3828125 312.94921875 c 0
 114.646484375 391.739257812 138.892578125 470.526367188 163.15625 549.31640625 c 0
 165.279296875 554.041992188 164.92578125 558.838867188 163.15625 563.669921875 c 0
 162.536132812 565.329101562 162.591796875 565.995117188 163.064453125 566.048828125 c 0
EndSplineSet
Validated: 524325
EndChar

StartChar: C
Encoding: 67 67 3
Width: 369
GlyphClass: 1
Flags: MW
VStem: 426.335 2.24023
LayerCount: 2
Fore
SplineSet
329.602539062 895.01171875 m 0
 303.017578125 895.85546875 276.185546875 890.977539062 251.641601562 880.951171875 c 0
 205.891601562 862.513671875 172.30859375 821.236328125 157.145507812 774.990234375 c 0
 121.35546875 660.556640625 86.0986328125 545.950195312 50.5166015625 431.451171875 c 0
 38.626953125 393.97265625 28.115234375 352.919921875 40.6943359375 314.2265625 c 0
 51.22265625 281.888671875 83.341796875 262.705078125 115.133789062 256.087890625 c 0
 176.545898438 243.024414062 246.385742188 261.227539062 287.258789062 310.546875 c 0
 308.280273438 334.555664062 319.620117188 364.767578125 328.581054688 394.90234375 c 0
 332.37109375 405.83203125 335.126953125 417.420898438 339.780273438 427.931640625 c 0
 344.94921875 433.1875 343.743164062 433.926757812 337.368164062 430.962890625 c 0
 326.529296875 430.446289062 315.483398438 430.962890625 304.627929688 430.791015625 c 0
 297.458984375 431.135742188 289.706054688 429.7578125 282.813476562 431.48046875 c 0
 276.264648438 436.736328125 277.815429688 432.099609375 280.055664062 426.775390625 c 0
 270.922851562 400.7890625 264.564453125 373.40625 249.573242188 349.9609375 c 0
 231.014648438 318.8203125 196.689453125 296.1796875 159.676757812 297.55859375 c 0
 136.70703125 298.256835938 109.119140625 305.091796875 98.4365234375 327.77734375 c 0
 87.580078125 353.10546875 95.3349609375 381.52734375 101.883789062 406.916015625 c 0
 135.380859375 514.967773438 169.29296875 622.887695312 202.946289062 730.888671875 c 0
 212.836914062 764.790039062 225.43359375 800.100585938 253.159179688 823.650390625 c 0
 279.815429688 847.481445312 319.342773438 851.237304688 352.186523438 839.451171875 c 0
 368.883789062 835.231445312 381.291015625 820.334960938 383.014648438 803.189453125 c 0
 385.771484375 774.759765625 377.844726562 746.309570312 369.401367188 719.56640625 c 1
 363.197265625 714.948242188 364.920898438 714.723632812 371.469726562 717.083984375 c 0
 389.166015625 717.600585938 407 717.118164062 424.749023438 717.2578125 c 1
 424.610351562 717.244140625 l 2
 424.610351562 716.899414062 426.334960938 716.383789062 426.334960938 716.0390625 c 0
 432.193359375 710.077148438 430.814453125 714.452148438 428.575195312 719.86328125 c 0
 439.0859375 753.821289062 446.494140625 790.46484375 437.362304688 825.5546875 c 0
 430.176757812 855.411132812 405.19140625 877.934570312 376.639648438 887.1875 c 0
 361.415039062 891.938476562 345.552734375 894.504882812 329.602539062 895.01171875 c 0
EndSplineSet
Validated: 524329
EndChar

StartChar: D
Encoding: 68 68 4
Width: 437
GlyphClass: 1
Flags: MW
HStem: 254 53.7344<95.8496 156.303 156.303 172.035 95.8496 203.586> 838.375 53.7363<257.41 336.07 212.689 358.431>
LayerCount: 2
Fore
SplineSet
205.97265625 896 m 1
 208.80078125 888.220703125 l 1
 13.125 258.064453125 l 1
 8 251.525390625 l 1
 15.599609375 254 l 1
 156.302734375 254 l 2
 250.870117188 254 328.29296875 256.827148438 375.48828125 411.494140625 c 2
 471.29296875 722.595703125 l 2
 501.51953125 819.991210938 447.607421875 892.111328125 336.0703125 892.111328125 c 2
 212.689453125 892.111328125 l 1
 205.97265625 896 l 1
248.21875 844.9140625 m 1
 257.41015625 838.375 l 1
 336.0703125 838.375 l 2
 380.791015625 838.375 445.131835938 830.420898438 411.193359375 724.009765625 c 2
 321.751953125 431.291015625 l 2
 287.459960938 319.75390625 255.997070312 307.734375 172.03515625 307.734375 c 2
 95.849609375 307.734375 l 1
 82.76953125 302.609375 l 1
 90.546875 313.21484375 l 1
 250.87109375 834.486328125 l 1
 248.21875 844.9140625 l 1
EndSplineSet
Validated: 524329
EndChar

StartChar: E
Encoding: 69 69 5
Width: 341
GlyphClass: 1
Flags: MW
HStem: 891.959 21G<210.402 452.975 210.402 210.402>
LayerCount: 2
Fore
SplineSet
203.728515625 895.998046875 m 1
 206.36328125 887.91796875 l 1
 12.09375 261.904296875 l 1
 7 255.404296875 l 1
 14.552734375 258.0390625 l 1
 266.609375 258.0390625 l 1
 273.109375 254 l 1
 271.353515625 261.904296875 l 1
 285.931640625 307.572265625 l 1
 291.025390625 314.072265625 l 1
 283.296875 311.4375 l 1
 93.947265625 311.4375 l 1
 81.125 306.16796875 l 1
 89.029296875 316.53125 l 1
 161.923828125 555.58984375 l 1
 159.2890625 565.77734375 l 1
 168.421875 559.279296875 l 1
 342.138671875 559.279296875 l 1
 347.232421875 555.58984375 l 1
 345.4765625 563.318359375 l 1
 360.056640625 606.3515625 l 1
 365.326171875 612.8515625 l 1
 357.421875 610.216796875 l 1
 185.109375 610.216796875 l 1
 173.515625 606.3515625 l 1
 181.419921875 616.890625 l 1
 247.9921875 834.521484375 l 1
 245.357421875 845.060546875 l 1
 254.490234375 838.560546875 l 1
 435.76171875 838.560546875 l 1
 442.259765625 834.521484375 l 1
 440.50390625 842.6015625 l 1
 455.08203125 887.91796875 l 1
 455.78515625 887.91796875 l 1
 460.87890625 894.59375 l 1
 452.974609375 891.958984375 l 1
 210.40234375 891.958984375 l 1
 203.728515625 895.998046875 l 1
EndSplineSet
Validated: 524297
EndChar

StartChar: F
Encoding: 70 70 6
Width: 343
GlyphClass: 1
Flags: HMW
HStem: 888.25 6.33984<457.013 463 458.07 463>
LayerCount: 2
Fore
SplineSet
205.578125 895.998046875 m 1
 208.04296875 888.25 l 1
 13.12890625 260.54296875 l 1
 8.021484375 254.029296875 l 1
 15.76953125 256.494140625 l 1
 69.6484375 256.494140625 l 1
 74.75390625 252.62109375 l 1
 72.994140625 260.54296875 l 1
 163.3203125 554.765625 l 1
 160.6796875 565.15234375 l 1
 169.833984375 558.814453125 l 1
 343.796875 558.814453125 l 1
 348.90234375 554.765625 l 1
 347.142578125 562.51171875 l 1
 361.755859375 605.826171875 l 1
 367.0390625 612.341796875 l 1
 359.115234375 609.5234375 l 1
 186.73828125 609.5234375 l 1
 174.587890625 605.826171875 l 1
 182.51171875 616.21484375 l 1
 249.244140625 834.724609375 l 1
 246.779296875 845.11328125 l 1
 255.759765625 838.59765625 l 1
 437.64453125 838.59765625 l 1
 444.16015625 834.724609375 l 1
 442.3984375 842.470703125 l 1
 457.013671875 888.25 l 1
 458.0703125 888.25 l 1
 463 894.58984375 l 1
 455.251953125 892.125 l 1
 212.09375 892.125 l 1
 205.578125 895.998046875 l 1
EndSplineSet
EndChar

StartChar: G
Encoding: 71 71 7
Width: 408
GlyphClass: 1
Flags: MW
HStem: 255.309 52.5469 523.822 49.9023
LayerCount: 2
Fore
SplineSet
327.467773438 895.998046875 m 1
 327.467773438 895.880859375 l 1
 268.336914062 894.67578125 210.92578125 862.165039062 180.102539062 811.560546875 c 0
 156.409179688 773.6328125 147.749023438 729.0703125 133.473632812 687.2578125 c 0
 108.5234375 606.86328125 82.58984375 526.752929688 58.4306640625 446.12109375 c 0
 46.8935546875 402.087890625 40.9873046875 352.647460938 62.0458984375 310.4375 c 0
 79.265625 277.551757812 115.411132812 258.387695312 151.571289062 255.30859375 c 0
 190.849609375 251.26171875 230.556640625 257.081054688 268.766601562 266.017578125 c 0
 283.919921875 269.857421875 298.745117188 274.696289062 313.071289062 280.861328125 c 1
 319.615234375 275.798828125 314.965820312 290.727539062 319.270507812 295.083984375 c 0
 347.889648438 386.657226562 376.525390625 478.231445312 405.161132812 569.8046875 c 1
 415.837890625 580.876953125 390.008789062 570.149414062 383.137695312 573.833984375 c 0
 345.065429688 573.662109375 306.977539062 573.788085938 268.887695312 573.724609375 c 1
 258.383789062 582.076171875 267.166015625 563.411132812 261.483398438 558.865234375 c 0
 255.973632812 547.379882812 255.456054688 533.315429688 247.190429688 523.4765625 c 1
 257.005859375 522.959960938 274.569335938 524.338867188 287.397460938 523.822265625 c 0
 301.345703125 524.68359375 315.965820312 521.99609375 329.379882812 525.19921875 c 0
 336.095703125 529.916992188 338.506835938 528.056640625 332.479492188 521.7890625 c 0
 326.625 509.838867188 324.041015625 496.506835938 319.735351562 483.904296875 c 0
 303.205078125 429.8984375 286.692382812 375.89453125 270.161132812 321.888671875 c 0
 272.055664062 315.930664062 274.637695312 308.61328125 266.372070312 315.36328125 c 1
 253.801757812 316.913085938 242.438476562 308.302734375 229.764648438 307.85546875 c 0
 198.098632812 301.518554688 162.78125 297.849609375 133.370117188 314.087890625 c 0
 110.08984375 328.741210938 103.821289062 358.817382812 106.541992188 384.50390625 c 0
 109.986328125 428.890625 127.860351562 470.250976562 139.741210938 512.720703125 c 0
 164.93359375 593.604492188 189.282226562 674.76171875 215.145507812 755.43359375 c 0
 229.782226562 795.493164062 259.830078125 833.499023438 302.620117188 844.59375 c 0
 331.825195312 852.256835938 367.2109375 848.9140625 389.182617188 826.439453125 c 0
 405.541992188 805.901367188 400.548828125 777.592773438 395.209960938 754.005859375 c 0
 393.48828125 744.138671875 388.493164062 729.926757812 385.565429688 724.203125 c 1
 395.380859375 727.922851562 406.143554688 725.581054688 416.422851562 726.201171875 c 2
 443.612304688 726.201171875 l 1
 453.772460938 714.440429688 445.852539062 735.809570312 451.362304688 741.474609375 c 0
 459.456054688 773.708007812 463.760742188 809.775390625 449.124023438 840.8671875 c 0
 433.110351562 873.544921875 396.397460938 889.75 361.940429688 894.27734375 c 0
 350.576171875 895.827148438 338.970703125 896.342773438 327.467773438 895.998046875 c 1
EndSplineSet
Validated: 524329
EndChar

StartChar: H
Encoding: 72 72 8
Width: 439
GlyphClass: 1
Flags: MW
HStem: 888.252 3.87305<210.016 266.344>
LayerCount: 2
Fore
SplineSet
203.501953125 895.998046875 m 1
 206.142578125 888.251953125 l 1
 11.45703125 260.716796875 l 1
 6 254.203125 l 1
 13.921875 256.66796875 l 1
 67.43359375 256.66796875 l 1
 72.71484375 252.794921875 l 1
 70.955078125 260.716796875 l 1
 161.255859375 554.857421875 l 1
 158.439453125 565.244140625 l 1
 167.76953125 558.90625 l 1
 344.32421875 558.90625 l 1
 357.349609375 564.01171875 l 1
 349.60546875 553.625 l 1
 257.89453125 260.716796875 l 1
 252.61328125 254.203125 l 1
 260.53515625 256.66796875 l 1
 314.046875 256.66796875 l 1
 320.736328125 252.794921875 l 1
 318.095703125 260.716796875 l 1
 512.95703125 888.251953125 l 1
 513.134765625 888.251953125 l 1
 518.23828125 894.58984375 l 1
 510.318359375 892.125 l 1
 456.98046875 892.125 l 1
 451.525390625 895.998046875 l 1
 453.28515625 888.251953125 l 1
 368.263671875 613.650390625 l 1
 370.904296875 603.265625 l 1
 363.158203125 609.6015625 l 1
 185.37109375 609.6015625 l 1
 173.40234375 605.90625 l 1
 181.322265625 616.291015625 l 1
 266.34375 888.251953125 l 1
 271.625 894.58984375 l 1
 263.703125 892.125 l 1
 210.015625 892.125 l 1
 203.501953125 895.998046875 l 1
EndSplineSet
Validated: 524297
EndChar

StartChar: I
Encoding: 73 73 9
Width: 189
GlyphClass: 1
Flags: MW
HStem: 891.959 21G<210.754 264.326 210.754 210.754>
LayerCount: 2
Fore
SplineSet
204.080078125 895.998046875 m 1
 206.890625 887.91796875 l 1
 12.26953125 261.904296875 l 1
 7 255.404296875 l 1
 14.904296875 258.0390625 l 1
 68.302734375 258.0390625 l 1
 73.572265625 254 l 1
 71.814453125 261.904296875 l 1
 168.966796875 574.955078125 l 1
 266.083984375 887.91796875 l 1
 266.611328125 887.91796875 l 1
 272.056640625 894.59375 l 1
 264.326171875 891.958984375 l 1
 210.75390625 891.958984375 l 1
 204.080078125 895.998046875 l 1
EndSplineSet
Validated: 524297
EndChar

StartChar: J
Encoding: 74 74 10
Width: 352
GlyphClass: 1
Flags: MW
HStem: 254 49.0508<97.9697 132.844 97.9697 159.196> 892.174 21G<375.227 426.885 375.227 375.227>
VStem: -1 61.4004<340.012 350.883>
LayerCount: 2
Fore
SplineSet
368.7890625 896 m 1
 370.529296875 888.34765625 l 1
 214.16015625 381.84375 l 2
 192.244140625 310.877929688 144.411132812 303.05078125 121.27734375 303.05078125 c 0
 74.662109375 303.05078125 60.400390625 326.532226562 60.400390625 353.4921875 c 0
 60.400390625 370.364257812 68.228515625 394.887695312 81.099609375 431.06640625 c 1
 87.708984375 436.28515625 l 1
 79.70703125 433.501953125 l 1
 27.00390625 433.501953125 l 1
 20.568359375 438.720703125 l 1
 22.30859375 431.06640625 l 1
 6.828125 388.452148438 -1 361.145507812 -1 340.62109375 c 0
 -1 314.704101562 17.08984375 254 113.97265625 254 c 0
 204.419921875 254 249.64453125 301.83203125 268.951171875 363.75390625 c 2
 430.537109375 888.34765625 l 1
 429.494140625 888.34765625 l 1
 434.712890625 894.609375 l 1
 426.884765625 892.173828125 l 1
 375.2265625 892.173828125 l 1
 368.7890625 896 l 1
EndSplineSet
Validated: 524297
EndChar

StartChar: K
Encoding: 75 75 11
Width: 355
GlyphClass: 1
Flags: MW
HStem: 888.254 3.87305<211.002 267.15 211.002 267.15> 888.254 6.33594<266.621 272.254 267.15 272.254>
LayerCount: 2
Fore
SplineSet
204.48828125 895.998046875 m 1x80
 206.953125 888.25390625 l 1x80
 12.28125 260.763671875 l 1
 7 254.25 l 1
 14.921875 256.71484375 l 1
 68.25390625 256.71484375 l 1
 73.533203125 252.841796875 l 1
 71.7734375 260.763671875 l 1
 266.62109375 888.25390625 l 1
 267.150390625 888.25390625 l 1
 272.25390625 894.58984375 l 1x40
 264.509765625 892.126953125 l 1
 211.001953125 892.126953125 l 1
 204.48828125 895.998046875 l 1x80
420.10546875 895.998046875 m 1
 420.10546875 890.89453125 l 1
 183.3671875 603.287109375 l 1
 179.494140625 602.0546875 l 1
 183.3671875 598.005859375 l 1
 268.3828125 260.763671875 l 1
 266.62109375 252.841796875 l 1
 271.7265625 256.71484375 l 1
 329.458984375 256.71484375 l 1
 337.37890625 254.25 l 1
 331.923828125 260.763671875 l 1
 242.859375 586.212890625 l 1
 235.115234375 590.0859375 l 1
 242.859375 592.90234375 l 1
 486.287109375 888.25390625 l 1
 486.81640625 888.25390625 l 1
 497.376953125 894.58984375 l 1x40
 485.408203125 892.126953125 l 1
 423.978515625 892.126953125 l 1
 420.10546875 895.998046875 l 1
EndSplineSet
Validated: 524297
EndChar

StartChar: L
Encoding: 76 76 12
Width: 336
GlyphClass: 1
Flags: MW
HStem: 892.135 21G<209.635 263.223 209.635 209.635>
LayerCount: 2
Fore
SplineSet
203.30859375 896 m 1
 205.76953125 888.26953125 l 1
 11.271484375 261.90625 l 1
 6 255.404296875 l 1
 13.90625 257.865234375 l 1
 256.720703125 257.865234375 l 1
 263.22265625 254 l 1
 260.5859375 261.90625 l 1
 276.224609375 307.587890625 l 1
 281.494140625 314.263671875 l 1
 273.587890625 311.27734375 l 1
 93.498046875 311.27734375 l 1
 80.49609375 306.181640625 l 1
 88.40234375 316.724609375 l 1
 265.857421875 888.26953125 l 1
 271.12890625 894.595703125 l 1
 263.22265625 892.134765625 l 1
 209.634765625 892.134765625 l 1
 203.30859375 896 l 1
EndSplineSet
Validated: 524297
EndChar

StartChar: M
Encoding: 77 77 13
Width: 612
GlyphClass: 1
Flags: MW
HStem: 891.959 21G<210.521 303.24 210.521 210.521 571.559 673.232 571.559 571.559>
LayerCount: 2
Fore
SplineSet
204.19921875 895.998046875 m 1
 206.658203125 888.095703125 l 1
 12.267578125 261.900390625 l 1
 7 255.404296875 l 1
 14.7265625 258.212890625 l 1
 65.826171875 258.212890625 l 1
 70.91796875 253.998046875 l 1
 69.162109375 261.900390625 l 1
 237.212890625 807.14453125 l 1
 247.57421875 852.80078125 l 1
 244.939453125 805.73828125 l 1
 213.857421875 261.900390625 l 1
 208.4140625 253.998046875 l 1
 216.4921875 258.212890625 l 1
 279.005859375 258.212890625 l 1
 284.099609375 253.998046875 l 1
 284.099609375 260.671875 l 1
 581.568359375 804.685546875 l 1
 606.15234375 852.80078125 l 1
 589.646484375 800.646484375 l 1
 422.296875 261.900390625 l 1
 417.205078125 255.404296875 l 1
 425.107421875 258.212890625 l 1
 478.490234375 258.212890625 l 1
 484.986328125 253.998046875 l 1
 482.353515625 261.900390625 l 1
 675.515625 888.095703125 l 1
 675.865234375 888.095703125 l 1
 681.134765625 894.59375 l 1
 673.232421875 891.958984375 l 1
 571.55859375 891.958984375 l 1
 566.115234375 895.998046875 l 1
 567.87109375 889.326171875 l 1
 277.07421875 342.853515625 l 1
 265.30859375 308.962890625 l 1
 270.578125 344.2578125 l 1
 305.873046875 888.095703125 l 1
 310.791015625 895.998046875 l 1
 303.240234375 891.958984375 l 1
 210.521484375 891.958984375 l 1
 204.19921875 895.998046875 l 1
EndSplineSet
Validated: 524297
EndChar

StartChar: N
Encoding: 78 78 14
Width: 471
GlyphClass: 1
Flags: MW
HStem: 891.955 21G<211.66 299.068 211.66 211.66 495.166 547.4 495.166 495.166>
VStem: 251.936 51.3535<829.168 888.086> 262.311 52.9375
LayerCount: 2
Fore
SplineSet
205.15234375 896 m 1xc0
 207.791015625 888.0859375 l 1
 13.1015625 260.927734375 l 1
 8 254.419921875 l 1
 15.916015625 257.234375 l 1
 66.56640625 257.234375 l 1
 73.25 253.013671875 l 1
 71.490234375 260.927734375 l 1
 212.5390625 718.369140625 l 1
 244.021484375 830.576171875 l 1
 251.935546875 868.388671875 l 1
 251.935546875 829.16796875 l 1xc0
 262.310546875 260.927734375 l 1
 257.2109375 253.013671875 l 1
 264.94921875 257.234375 l 1
 351.126953125 257.234375 l 1
 357.634765625 253.013671875 l 1
 355.875 260.927734375 l 1
 549.333984375 888.0859375 l 1
 550.212890625 888.0859375 l 1
 555.138671875 894.59375 l 1
 547.400390625 891.955078125 l 1
 495.166015625 891.955078125 l 1
 488.482421875 896 l 1
 490.2421875 888.0859375 l 1
 357.10546875 445.240234375 l 1
 321.755859375 321.251953125 l 1
 312.611328125 279.392578125 l 1
 315.248046875 321.251953125 l 1xa0
 313.490234375 484.4609375 l 1
 303.2890625 888.0859375 l 1
 307.158203125 896 l 1
 299.068359375 891.955078125 l 1
 211.66015625 891.955078125 l 1
 205.15234375 896 l 1xc0
EndSplineSet
Validated: 524297
EndChar

StartChar: O
Encoding: 79 79 15
Width: 425
GlyphClass: 1
Flags: MW
HStem: 846.432 49.5625<323 323>
LayerCount: 2
Fore
SplineSet
323.338867188 895.994140625 m 0
 251.47265625 895.391601562 181.69921875 854.219726562 154.838867188 769.609375 c 2
 55.3056640625 445.22265625 l 2
 18.173828125 325.231445312 47.5693359375 271.596679688 154.838867188 256.125 c 0
 223.7734375 246.154296875 315.743164062 269.017578125 346.170898438 373.708984375 c 2
 453.612304688 718.380859375 l 2
 486.790039062 828.229492188 425.590820312 872.924804688 383.301757812 887.021484375 c 0
 363.747070312 893.151367188 343.4609375 896.163085938 323.338867188 895.994140625 c 0
323.819335938 846.431640625 m 0
 328.494140625 846.44921875 332.67578125 846.279296875 336.200195312 846.107421875 c 0
 387.083984375 842.325195312 421.809570312 805.366210938 401.352539062 737.806640625 c 2
 290.301757812 378.865234375 l 2
 269.672851562 312.337890625 211.051757812 298.413085938 168.934570312 303.5703125 c 0
 143.3203125 305.9765625 75.58984375 322.48046875 99.8291015625 399.150390625 c 2
 209.676757812 755.341796875 l 2
 234.194335938 837.018554688 291.091796875 846.306640625 323.819335938 846.431640625 c 0
EndSplineSet
Validated: 524329
EndChar

StartChar: P
Encoding: 80 80 16
Width: 381
GlyphClass: 1
Flags: MW
HStem: 543.049 49.6172<181.482 248.168 181.482 248.168 181.482 248.52 181.482 303.943> 838.465 53.6621<255.908 338.076 338.076 338.428 211.922 365.172>
LayerCount: 2
Fore
SplineSet
205.412109375 895.998046875 m 1
 207.875 888.080078125 l 1
 13.279296875 260.83203125 l 1
 8 254.498046875 l 1
 15.91796875 256.78515625 l 1
 69.58203125 256.78515625 l 1
 74.68359375 253.08984375 l 1
 72.923828125 260.83203125 l 1
 158.08203125 537.947265625 l 1
 155.267578125 548.328125 l 1
 164.416015625 543.048828125 l 1
 248.16796875 543.048828125 l 1
 248.51953125 543.048828125 l 2
 359.366210938 543.048828125 414.436523438 600.583984375 444.5234375 699.994140625 c 0
 477.249023438 801.69140625 461.4140625 892.126953125 338.427734375 892.126953125 c 2
 211.921875 892.126953125 l 1
 205.412109375 895.998046875 l 1
246.583984375 844.974609375 m 1
 255.908203125 838.46484375 l 1
 338.076171875 838.46484375 l 2
 392.267578125 838.46484375 419.36328125 815.0625 390.5078125 716.884765625 c 0
 360.596679688 621.521484375 322.59375 592.666015625 248.16796875 592.666015625 c 2
 181.482421875 592.666015625 l 1
 169.6953125 588.970703125 l 1
 177.61328125 599.3515625 l 1
 249.57421875 834.41796875 l 1
 246.583984375 844.974609375 l 1
EndSplineSet
Validated: 524329
EndChar

StartChar: Q
Encoding: 81 81 17
Width: 427
GlyphClass: 1
Flags: MW
HStem: 257.598 48.6211<171.574 186.897 171.574 211.978> 844.131 51.7754<338 338>
LayerCount: 2
Fore
SplineSet
337.353515625 895.90625 m 0
 255.517578125 898.1015625 187.805664062 862.952148438 156.5078125 765.20703125 c 2
 58.75390625 447.287109375 l 2
 25.712890625 338.061523438 35.9833984375 257.59765625 174.484375 257.59765625 c 0
 249.470703125 257.59765625 296.549804688 268.040039062 356.298828125 258.966796875 c 1
 362.8046875 254.001953125 l 1
 361.09375 261.53515625 l 1
 376.330078125 307.587890625 l 1
 381.466796875 312.380859375 l 1
 373.76171875 309.814453125 l 1
 347.225585938 311.18359375 320.51953125 306.21875 297.578125 304.677734375 c 2
 268.302734375 298.513671875 l 1
 295.181640625 311.18359375 l 1
 317.780273438 331.556640625 343.459960938 359.4609375 355.95703125 396.611328125 c 1
 356.298828125 396.611328125 l 1
 460.732421875 737.30078125 l 2
 489.836914062 829.919921875 431.28515625 887.272460938 353.90234375 894.9765625 c 0
 348.328125 895.447265625 342.809570312 895.759765625 337.353515625 895.90625 c 0
338.15234375 844.130859375 m 0
 404.236328125 842.76171875 422.212890625 802.014648438 399.271484375 727.029296875 c 2
 302.712890625 416.814453125 l 2
 270.870117188 309.814453125 202.219726562 306.21875 171.57421875 306.21875 c 0
 141.271484375 307.587890625 76.21484375 314.950195312 105.490234375 407.912109375 c 2
 204.787109375 729.59765625 l 2
 237.829101562 837.795898438 301.344726562 845.329101562 338.15234375 844.130859375 c 0
EndSplineSet
Validated: 524329
EndChar

StartChar: R
Encoding: 82 82 18
Width: 416
GlyphClass: 1
Flags: MW
HStem: 558.803 49.6035<186.711 266.215 186.711 266.215 186.711 294.534> 838.479 53.4727<255.838 336.75 336.75 354.34 211.863 381.868>
LayerCount: 2
Fore
SplineSet
205.35546875 895.998046875 m 1
 208.169921875 887.90625 l 1
 13.451171875 261.009765625 l 1
 8 254.501953125 l 1
 15.9140625 257.140625 l 1
 69.38671875 257.140625 l 1
 74.6640625 253.09375 l 1
 72.904296875 261.009765625 l 1
 162.96484375 553.525390625 l 1
 160.326171875 564.080078125 l 1
 169.6484375 558.802734375 l 1
 266.21484375 558.802734375 l 2
 322.853515625 558.802734375 328.834960938 522.215820312 321.095703125 497.58984375 c 2
 267.623046875 288.44921875 l 2
 264.984375 281.94140625 264.984375 276.840820312 267.623046875 261.009765625 c 1
 263.75390625 253.09375 l 1
 270.26171875 257.140625 l 1
 322.326171875 257.140625 l 1
 330.2421875 253.09375 l 1
 326.373046875 261.009765625 l 1
 324.614257812 276.840820312 324.614257812 280.534179688 326.373046875 288.44921875 c 2
 380.021484375 497.58984375 l 2
 387.760742188 526.260742188 372.104492188 558.801757812 340.794921875 574.6328125 c 1
 314.587890625 582.373046875 l 1
 340.794921875 582.373046875 l 1
 341.32421875 582.373046875 l 1
 406.58203125 604.536132812 437.890625 645.16796875 458.822265625 713.064453125 c 0
 490.307617188 815.084960938 448.444335938 891.951171875 354.33984375 891.951171875 c 2
 211.86328125 891.951171875 l 1
 205.35546875 895.998046875 l 1
246.515625 844.986328125 m 1
 255.837890625 838.478515625 l 1
 336.75 838.478515625 l 2
 426.985351562 838.478515625 416.606445312 778.322265625 399.544921875 722.2109375 c 0
 369.466796875 623.004882812 317.224609375 608.40625 266.21484375 608.40625 c 2
 186.7109375 608.40625 l 1
 174.92578125 604.53515625 l 1
 182.6640625 614.9140625 l 1
 249.330078125 834.43359375 l 1
 246.515625 844.986328125 l 1
EndSplineSet
Validated: 524329
EndChar

StartChar: S
Encoding: 83 83 19
Width: 345
GlyphClass: 1
Flags: MW
HStem: 253.998 48.5625<109.931 157.116 109.931 186.908> 848.812 47.1855<280.417 328.291>
VStem: 6 57.1738<340.448 363.352 340.448 365.333> 365.23 61.1348<788.711 807.224>
LayerCount: 2
Fore
SplineSet
301.16796875 895.998046875 m 0
 244.682617188 895.998046875 169.428710938 871.887695312 134.642578125 761.845703125 c 0
 118.282226562 706.911132812 119.486328125 654.55859375 192.50390625 580.3359375 c 0
 258.116210938 513.690429688 283.259765625 488.204101562 256.39453125 398.482421875 c 0
 233.146484375 324.259765625 180.623046875 302.560546875 133.609375 302.560546875 c 0
 86.251953125 302.560546875 63.173828125 325.810546875 63.173828125 355.0859375 c 0
 63.173828125 371.618164062 63.1748046875 374.372070312 83.49609375 436.884765625 c 1
 88.833984375 443.4296875 l 1
 81.083984375 440.673828125 l 1
 24.771484375 440.673828125 l 1
 19.60546875 444.462890625 l 1
 21.328125 436.884765625 l 1
 12.373046875 408.814453125 6 375.579101562 6 355.0859375 c 0
 6 288.61328125 57.1474609375 253.998046875 133.953125 253.998046875 c 0
 239.862304688 253.998046875 291.1796875 322.881835938 314.083984375 398.482421875 c 0
 347.493164062 503.530273438 296.346679688 561.048828125 256.73828125 603.240234375 c 0
 178.727539062 681.250976562 176.143554688 695.373046875 191.470703125 746.51953125 c 0
 214.375 821.947265625 256.73828125 848.8125 304.095703125 848.8125 c 0
 352.486328125 848.8125 365.23046875 817.987304688 365.23046875 796.4609375 c 0
 365.23046875 780.961914062 365.23046875 778.55078125 350.076171875 728.4375 c 1
 344.73828125 722.064453125 l 1
 352.48828125 724.6484375 l 1
 408.80078125 724.6484375 l 1
 413.966796875 720.6875 l 1
 412.244140625 728.4375 l 1
 423.954101562 766.840820312 426.365234375 780.961914062 426.365234375 796.4609375 c 0
 426.365234375 858.973632812 381.762695312 895.998046875 301.16796875 895.998046875 c 0
EndSplineSet
Validated: 524329
EndChar

StartChar: T
Encoding: 84 84 20
Width: 365
GlyphClass: 1
Flags: MW
HStem: 891.951 21G<165.592 500.309 165.592 165.592>
LayerCount: 2
Fore
SplineSet
158.90625 895.998046875 m 1
 161.544921875 887.904296875 l 1
 145.8828125 842.5 l 1
 140.603515625 835.98828125 l 1
 148.345703125 838.453125 l 1
 281.916015625 838.453125 l 1
 293.53125 843.732421875 l 1
 285.787109375 833.173828125 l 1
 109.279296875 260.70703125 l 1
 104 254.1953125 l 1
 111.91796875 256.8359375 l 1
 164.361328125 256.8359375 l 1
 170.6953125 252.7890625 l 1
 168.935546875 260.70703125 l 1
 345.4453125 834.404296875 l 1
 342.62890625 844.96484375 l 1
 351.95703125 838.453125 l 1
 482.53515625 838.453125 l 1
 489.044921875 834.404296875 l 1
 487.28515625 842.5 l 1
 501.541015625 887.904296875 l 1
 502.595703125 887.904296875 l 1
 507.875 894.58984375 l 1
 500.30859375 891.951171875 l 1
 165.591796875 891.951171875 l 1
 158.90625 895.998046875 l 1
EndSplineSet
Validated: 524297
EndChar

StartChar: U
Encoding: 85 85 21
Width: 434
GlyphClass: 1
Flags: MW
HStem: 254.131 49.4688 893.387 21G<210.306 262.038 210.306 210.306 447.718 499.45 447.718 447.718>
LayerCount: 2
Fore
SplineSet
203.860351562 897.39453125 m 1
 205.602539062 889.380859375 l 1
 58.0673828125 413.509765625 l 2
 24.44921875 302.032226562 90.291015625 257.091796875 157.526367188 254.130859375 c 0
 267.610351562 250.47265625 328.40234375 324.327148438 347.737304688 384.943359375 c 2
 502.934570312 889.380859375 l 1
 501.889648438 889.380859375 l 1
 507.114257812 896 l 1
 499.450195312 893.38671875 l 1
 447.717773438 893.38671875 l 1
 441.274414062 897.39453125 l 1
 443.014648438 889.380859375 l 1
 291.823242188 400.4453125 l 2
 267.262695312 318.926757812 210.303710938 302.032226562 172.680664062 303.599609375 c 0
 130.004882812 304.993164062 91.3369140625 327.984375 112.065429688 396.61328125 c 2
 264.651367188 889.380859375 l 1
 269.702148438 896 l 1
 262.038085938 893.38671875 l 1
 210.305664062 893.38671875 l 1
 203.860351562 897.39453125 l 1
EndSplineSet
Validated: 524329
EndChar

StartChar: V
Encoding: 86 86 22
Width: 388
GlyphClass: 1
Flags: MW
HStem: 888.1 3.86328<162.559 218.75> 888.1 6.49805
LayerCount: 2
Fore
SplineSet
154.83203125 896.001953125 m 1x80
 158.6953125 888.099609375 l 1x80
 114.267578125 261.904296875 l 1
 109 254.001953125 l 1
 116.90234375 258.216796875 l 1
 188.72265625 258.216796875 l 1
 193.990234375 254.001953125 l 1
 192.234375 260.673828125 l 1
 532.7265625 888.099609375 l 1
 533.078125 888.099609375 l 1
 540.8046875 894.59765625 l 1x40
 530.443359375 891.962890625 l 1
 477.060546875 891.962890625 l 1
 471.6171875 896.001953125 l 1
 471.6171875 889.328125 l 1
 196.44921875 363.751953125 l 1
 182.048828125 335.12890625 l 1
 166.59765625 294.56640625 l 1
 174.498046875 336.359375 l 1
 178.185546875 368.845703125 l 1
 218.75 888.099609375 l 1
 223.84375 896.001953125 l 1
 215.94140625 891.962890625 l 1
 162.55859375 891.962890625 l 1
 154.83203125 896.001953125 l 1x80
EndSplineSet
Validated: 524297
EndChar

StartChar: W
Encoding: 87 87 23
Width: 613
GlyphClass: 1
Flags: MW
HStem: 893.357 21G<153.025 206.717 153.025 153.025 408.1 491.541 408.1 408.1 693.805 747.496 693.805 693.805>
LayerCount: 2
Fore
SplineSet
145.103515625 897.40625 m 5
 149.15234375 889.30859375 l 5
 73.28125 261.919921875 l 5
 68 255.408203125 l 5
 75.921875 258.048828125 l 5
 157.07421875 258.048828125 l 5
 162.35546875 254 l 5
 162.35546875 260.51171875 l 5
 404.228515625 771.71875 l 5
 422.359375 812.3828125 l 5
 440.666015625 855.509765625 l 5
 428.873046875 811.150390625 l 5
 421.302734375 766.61328125 l 5
 346.6640625 261.919921875 l 5
 341.3828125 255.408203125 l 5
 349.12890625 258.048828125 l 5
 428.873046875 258.048828125 l 5
 434.154296875 254 l 5
 432.392578125 260.51171875 l 5
 750.13671875 889.30859375 l 5
 756.650390625 895.998046875 l 5
 747.49609375 893.357421875 l 5
 693.8046875 893.357421875 l 5
 688.69921875 897.40625 l 5
 690.4609375 890.89453125 l 5
 436.794921875 374.40625 l 5
 415.845703125 332.509765625 l 5
 398.947265625 290.615234375 l 5
 409.15625 333.7421875 l 5
 418.486328125 379.51171875 l 5
 494.357421875 889.30859375 l 5
 499.638671875 895.998046875 l 5
 491.541015625 893.357421875 l 5
 408.099609375 893.357421875 l 5
 402.642578125 897.40625 l 5
 402.642578125 890.89453125 l 5
 158.306640625 374.40625 l 5
 138.58984375 332.509765625 l 5
 121.69140625 290.615234375 l 5
 132.078125 333.7421875 l 5
 140 379.51171875 l 5
 209.357421875 889.30859375 l 5
 214.4609375 897.40625 l 5
 206.716796875 893.357421875 l 5
 153.025390625 893.357421875 l 5
 145.103515625 897.40625 l 5
EndSplineSet
Validated: 524297
EndChar

StartChar: X
Encoding: 88 88 24
Width: 411
GlyphClass: 1
Flags: MW
HStem: 891.988 21G
LayerCount: 2
Fore
SplineSet
177.770507812 895.404296875 m 0
 175.919921875 895.78125 179.34375 891.3828125 181.583007812 888.08984375 c 0
 198.598632812 794.1953125 215.299804688 700.055664062 232.508789062 606.31640625 c 5
 239.533203125 602.892578125 238.479492188 601.154296875 230.752929688 600.978515625 c 5
 145.990234375 487.540039062 61.244140625 374.100585938 -23.5185546875 260.662109375 c 0
 -30.015625 256.325195312 -31.595703125 254.3046875 -23.5185546875 257.904296875 c 0
 -3.18359375 258.606445312 17.37890625 258.080078125 37.7841796875 258.255859375 c 0
 43.2275390625 258.2734375 46.7392578125 250.618164062 44.9833984375 260.71484375 c 1
 234.211914062 519.197265625 l 2
 240.182617188 525.786132812 243.16796875 534.040039062 245.977539062 542.380859375 c 1
 245.977539062 526.3828125 l 1
 255.723632812 469.607421875 266.1015625 412.887695312 276.110351562 356.1328125 c 0
 281.553710938 324.543945312 287.69921875 292.892578125 292.616210938 261.341796875 c 1
 288.928710938 253.966796875 291.037109375 253.405273438 297.358398438 257.865234375 c 0
 308.754882812 258.743164062 320.571289062 257.865234375 332.161132812 258.216796875 c 0
 338.8515625 257.514648438 346.580078125 259.831054688 352.725585938 256.810546875 c 0
 360.803710938 251.15625 355.7109375 257.514648438 352.725585938 261.904296875 c 0
 334.059570312 367.147460938 315.375 472.391601562 296.708007812 577.634765625 c 1
 288.981445312 579.91796875 291.439453125 580.97265625 298.463867188 581.32421875 c 1
 374.5 683.993164062 450.536132812 786.659179688 526.571289062 889.328125 c 1
 526.764648438 889.5 l 2
 533.61328125 894.627929688 535.720703125 895.822265625 526.764648438 892.416015625 c 0
 506.290039062 891.713867188 485.62109375 892.240234375 465.075195312 892.064453125 c 0
 459.631835938 889.95703125 455.241210938 900.828125 456.997070312 890.8359375 c 1
 402.841796875 814.484375 348.685546875 738.1328125 294.530273438 661.783203125 c 0
 288.208984375 655.020507812 286.1015625 646.133789062 283.291992188 637.6171875 c 1
 283.291992188 653.791015625 l 1
 269.770507812 731.671875 255.530273438 809.495117188 241.833007812 887.353515625 c 0
 243.0625 893.39453125 245.521484375 898.5390625 238.321289062 892.515625 c 1
 226.46875 891.461914062 214.087890625 892.33984375 201.971679688 891.98828125 c 0
 195.31640625 892.690429688 187.764648438 890.409179688 181.618164062 893.21875 c 0
 179.58984375 894.624023438 178.387695312 895.278320312 177.770507812 895.404296875 c 0
EndSplineSet
Validated: 524329
EndChar

StartChar: Y
Encoding: 89 89 25
Width: 364
GlyphClass: 1
Flags: MW
HStem: 887.906 4.04688<150.432 206.725 153.246 210.594>
LayerCount: 2
Fore
SplineSet
213.232421875 895.998046875 m 1
 206.724609375 891.953125 l 1
 153.24609375 891.953125 l 1
 145.330078125 894.591796875 l 1
 150.431640625 887.90625 l 1
 187.197265625 520.947265625 l 1
 106.1015625 260.9453125 l 1
 101 254.4375 l 1
 108.740234375 257.076171875 l 1
 160.986328125 257.076171875 l 1
 167.494140625 253.029296875 l 1
 165.736328125 260.9453125 l 1
 245.42578125 517.25390625 l 1
 502.7890625 887.90625 l 1
 502.96484375 887.90625 l 1
 512.11328125 894.591796875 l 1
 500.501953125 891.953125 l 1
 437.701171875 891.953125 l 1
 433.654296875 895.998046875 l 1
 433.654296875 889.490234375 l 1
 244.369140625 600.63671875 l 1
 236.27734375 582.341796875 l 1
 238.037109375 601.869140625 l 1
 210.59375 887.90625 l 1
 213.232421875 895.998046875 l 1
EndSplineSet
Validated: 524297
EndChar

StartChar: Z
Encoding: 90 90 26
Width: 379
GlyphClass: 1
Flags: MW
HStem: 892.311 21G<185.273 470.355 185.273 185.273>
LayerCount: 2
Fore
SplineSet
178.7578125 896.359375 m 1
 180.517578125 888.435546875 l 1
 167.3125 845.294921875 l 1
 162.205078125 838.779296875 l 1
 170.12890625 841.24609375 l 1
 384.6015625 841.24609375 l 1
 400.2734375 845.294921875 l 1
 387.2421875 834.73046875 l 1
 7.779296875 311.580078125 l 1
 -7.716796875 260.515625 l 1
 -13 254 l 1
 -5.427734375 256.818359375 l 1
 293.037109375 256.818359375 l 1
 299.552734375 252.591796875 l 1
 297.791015625 260.515625 l 1
 310.822265625 303.83203125 l 1
 316.103515625 310.34765625 l 1
 308.00390625 307.70703125 l 1
 83.142578125 307.70703125 l 1
 66.0625 303.83203125 l 1
 79.26953125 314.220703125 l 1
 454.68359375 832.087890625 l 1
 472.99609375 888.435546875 l 1
 478.1015625 894.951171875 l 1
 470.35546875 892.310546875 l 1
 185.2734375 892.310546875 l 1
 178.7578125 896.359375 l 1
EndSplineSet
Validated: 524297
EndChar

StartChar: bracketleft
Encoding: 91 91 27
Width: 206
GlyphClass: 1
Flags: MW
HStem: 139.174 39.8105 853.773 39.8828 889.738 6.24414
LayerCount: 2
Fore
SplineSet
351.215820312 895.982421875 m 0xa0
 350.741210938 896.108398438 349.001953125 895.52734375 345.166992188 894.17578125 c 0
 299.68359375 892.962890625 253.922851562 894.002929688 208.336914062 893.65625 c 1
 200.36328125 889.149414062 185.803710938 903.831054688 192.217773438 889.669921875 c 1
 116.609375 644.756835938 41.0009765625 399.842773438 -34.6240234375 154.9296875 c 0
 -32.7177734375 147.805664062 -50.2236328125 132.102539062 -37.0498046875 138.654296875 c 1
 1.603515625 139.8671875 40.603515625 138.827148438 79.3955078125 139.173828125 c 0
 91.9619140625 137.579101562 106.572265625 142.987304688 117.319335938 135.1875 c 1
 113.159179688 144.75 120.09375 153.81640625 122.000976562 163.107421875 c 0
 120.09375 170.057617188 137.774414062 185.763671875 124.774414062 179.505859375 c 1
 93.9208984375 178.29296875 62.75390625 179.331054688 31.7626953125 178.984375 c 1
 19.9755859375 174.737304688 14.255859375 172.208007812 25.5224609375 184.185546875 c 1
 93.3818359375 403.556640625 161.259765625 622.927734375 229.120117188 842.298828125 c 0
 234.493164062 850.098632812 223.74609375 867.415039062 236.399414062 853.7734375 c 1
 314.313476562 853.7734375 l 2xc0
 321.6796875 857.37890625 338.838867188 847.689453125 335.719726562 854.29296875 c 0
 335.719726562 866.2109375 342.827148438 877.802734375 345.600585938 889.58984375 c 1
 346.899414062 889.73828125 l 2
 349.282226562 893.594726562 352.005859375 895.771484375 351.215820312 895.982421875 c 0xa0
EndSplineSet
Validated: 524329
EndChar

StartChar: backslash
Encoding: 92 92 28
Width: 453
GlyphClass: 1
Flags: MW
HStem: 889.76 6.24023<83 89.5859>
LayerCount: 2
Fore
SplineSet
83 896 m 1
 89.23828125 889.759765625 l 1
 89.5859375 889.759765625 l 1
 197.000976562 663.559570312 304.397460938 437.360351562 411.8125 211.16015625 c 1
 405.572265625 199.373046875 422.212890625 213.362304688 429.388671875 208.560546875 c 1
 443.08203125 207.694335938 457.192382812 210.864257812 470.2265625 205.958984375 c 1
 457.74609375 219.0625 453.584960938 237.844726562 444.67578125 253.4375 c 0
 343.8828125 465.892578125 243.072265625 678.34375 142.279296875 890.798828125 c 1
 145.225585938 902.741210938 130.319335938 888.75390625 122.796875 893.572265625 c 1
 109.450195312 894.438476562 95.7744140625 891.528320312 83 896 c 1
EndSplineSet
Validated: 524329
EndChar

StartChar: bracketright
Encoding: 93 93 29
Width: 207
GlyphClass: 1
Flags: MW
HStem: 137.176 40.3496 851.27 40.7441
LayerCount: 2
Fore
SplineSet
132.443359375 896 m 1
 136.4296875 886.922851562 130.19140625 878.338867188 128.111328125 869.55078125 c 0
 130.017578125 862.639648438 113.204101562 846.485351562 123.77734375 851.26953125 c 1
 154.751953125 853.349609375 186.264648438 851.6171875 217.447265625 852.13671875 c 1
 229.234375 856.799804688 233.046875 858.653320312 222.646484375 847.109375 c 1
 155.2890625 627.681640625 87.931640625 408.255859375 20.591796875 188.828125 c 0
 15.73828125 179.728515625 25.4453125 164.8203125 11.92578125 177.525390625 c 1
 -52.58984375 177.525390625 l 2
 -64.4462890625 179.137695312 -78.3818359375 173.765625 -88.435546875 181.33984375 c 1
 -83.2353515625 171.986328125 -90.6875 162.708007812 -92.59375 153.400390625 c 0
 -90.8603515625 146.415039062 -108.1953125 130.606445312 -95.021484375 137.17578125 c 1
 -49.919921875 138.388671875 -4.490234375 137.348632812 40.75 137.6953125 c 1
 48.775390625 142.375 64.7236328125 126.950195312 58.13671875 141.509765625 c 1
 134.801757812 390.416015625 211.483398438 639.322265625 288.1484375 888.228515625 c 1
 288.89453125 888.216796875 l 1
 292.880859375 894.318359375 297.388671875 896.5546875 287.162109375 892.533203125 c 0
 246.359375 891.3203125 205.208984375 892.360351562 164.28515625 892.013671875 c 0
 153.798828125 893.729492188 140.763671875 888.009765625 132.443359375 896 c 1
EndSplineSet
Validated: 524329
EndChar

StartChar: asciicircum
Encoding: 94 94 30
Width: 641
GlyphClass: 1
Flags: W
LayerCount: 2
Fore
SplineSet
474.10546875 671.12890625 m 0
 473.668945312 671.198242188 473.123046875 670.952148438 472.4296875 670.310546875 c 0
 455.66796875 668.23046875 437.60546875 670.13671875 420.4453125 669.443359375 c 0
 412.905273438 666.461914062 396.612304688 674.33203125 398.345703125 668.404296875 c 1
 364.147460938 633.083984375 329.94921875 597.765625 295.767578125 562.4453125 c 0
 264.654296875 531.11328125 235.049804688 498.145507812 203 467.857421875 c 1
 218.7734375 470.110351562 234.805664062 468.376953125 250.751953125 468.896484375 c 0
 258.638671875 471.9296875 275.799804688 463.765625 274.06640625 470.109375 c 1
 323.622070312 522.239257812 373.196289062 574.368164062 422.751953125 626.498046875 c 0
 429.685546875 631.493164062 434.711914062 649.702148438 432.978515625 631.490234375 c 1
 445.267578125 583.8671875 459.359375 536.495117188 472.359375 488.966796875 c 0
 476.51953125 483.388671875 474.265625 463.559570312 478.251953125 467.892578125 c 0
 493.401367188 470.319335938 510.12890625 468.240234375 525.90234375 468.93359375 c 2
 526.21484375 468.876953125 l 2
 533.495117188 465.219726562 534.188476562 463.227539062 528.98828125 471.02734375 c 0
 511.463867188 530.130859375 495.829101562 590.084960938 479.015625 649.513671875 c 0
 474.768554688 654.622070312 477.158203125 670.640625 474.10546875 671.12890625 c 0
EndSplineSet
Validated: 524329
EndChar

StartChar: underscore
Encoding: 95 95 31
Width: 541
GlyphClass: 1
Flags: W
LayerCount: 2
Fore
SplineSet
48.09375 312.93359375 m 1
 50.345703125 306 l 1
 41.16015625 260.759765625 l 1
 37 255.212890625 l 1
 43.759765625 257.466796875 l 1
 347.78515625 257.466796875 l 1
 585.599609375 254 l 1
 583.865234375 260.759765625 l 1
 593.052734375 306 l 1
 593.74609375 306 l 1
 598.080078125 311.71875 l 1
 591.146484375 309.29296875 l 1
 53.466796875 309.29296875 l 1
 48.09375 312.93359375 l 1
EndSplineSet
Validated: 524297
EndChar

StartChar: grave
Encoding: 96 96 32
Width: 352
GlyphClass: 1
Flags: MW
HStem: 892.188 21G<100.654 187.27 100.654 100.654>
LayerCount: 2
Fore
SplineSet
192.642578125 896 m 1
 190.909179688 894.734375 189.002929688 893.400390625 187.26953125 892.1875 c 2
 100.654296875 892.1875 l 2
 96.494140625 892.603515625 92.16015625 893.920898438 88 894.787109375 c 1
 90.9462890625 892.5859375 93.8935546875 890.40234375 96.83984375 888.201171875 c 0
 142.7734375 838.923828125 188.70703125 789.6484375 234.623046875 740.37109375 c 0
 234.623046875 738.326171875 234.501953125 735.951171875 234.623046875 733.767578125 c 1
 235.8359375 735.033203125 236.530273438 736.3671875 238.263671875 737.580078125 c 2
 295.1171875 737.580078125 l 1
 295.255859375 737.5703125 l 2
 298.548828125 736.703125 302.015625 735.836914062 305.30859375 734.970703125 c 1
 302.708984375 737.102539062 300.107421875 739.250976562 297.5078125 741.3828125 c 0
 262.598632812 790.651367188 227.708007812 839.918945312 192.798828125 889.1875 c 0
 192.642578125 891.354492188 192.747070312 893.747070312 192.642578125 896 c 1
EndSplineSet
Validated: 524297
EndChar

StartChar: a
Encoding: 97 97 33
Width: 265
GlyphClass: 1
Flags: HMW
VStem: 92.9553 43.6797<549.311 549.311>
LayerCount: 2
Fore
SplineSet
198.083007812 643 m 2
 198.955078125 643 l 2
 281.607421875 643 287.362304688 578.307617188 277.07421875 549.012695312 c 2
 211.509765625 332.44140625 l 1
 211.509765625 332.44140625 l 1
 200.000976562 298.438476562 195.641601562 269.143554688 193.375 260.076171875 c 2
 195.641601562 253.275390625 l 1
 189.887695312 256.588867188 l 1
 149.258789062 256.588867188 l 1
 142.283203125 254.322265625 l 1
 146.817382812 260.076171875 l 2
 148.560546875 264.435546875 149.258789062 273.500976562 151.525390625 285.009765625 c 2
 159.0234375 312.0390625 l 1
 145.596679688 289.369140625 l 2
 115.081054688 264.435546875 88.9248046875 252.0546875 67.4775390625 252.0546875 c 0
 -11.8623046875 252.0546875 -3.841796875 333.662109375 6.2724609375 366.444335938 c 0
 36.787109375 463.918945312 98.1669921875 484.145507812 159.0234375 484.145507812 c 2
 206.975585938 484.145507812 l 1
 213.602539062 479.786132812 l 1
 211.509765625 489.028320312 l 1
 232.958007812 557.034179688 l 2
 243.24609375 590.862304688 225.110351562 605.684570312 191.108398438 605.684570312 c 0
 162.859375 605.684570312 131.124023438 585.282226562 118.568359375 535.5859375 c 2
 118.568359375 528.78515625 l 1
 112.98828125 531.923828125 l 1
 73.40625 531.923828125 l 1
 66.60546875 529.657226562 l 1
 71.138671875 535.5859375 l 2
 83.6943359375 575.168945312 115.4296875 643 198.083007812 643 c 2
204.53515625 452.583984375 m 1
 194.420898438 449.271484375 l 1
 159.0234375 449.271484375 l 2
 116.301757812 449.271484375 80.0322265625 441.598632812 53.8759765625 359.817382812 c 0
 44.80859375 329.127929688 39.228515625 289.369140625 80.0322265625 289.369140625 c 0
 123.102539062 289.369140625 160.41796875 325.640625 179.599609375 384.579101562 c 2
 197.908203125 443.516601562 l 1
 204.53515625 452.583984375 l 1
EndSplineSet
Validated: 524325
EndChar

StartChar: b
Encoding: 98 98 34
Width: 292
GlyphClass: 1
Flags: W
HStem: 253.528 34.877<76.0118 164.607> 605.937 34.0029<181.389 254.063>
LayerCount: 2
Fore
SplineSet
165.7578125 811 m 1
 170.291015625 807.861328125 l 1
 212.315429688 807.861328125 l 1
 219.116210938 809.954101562 l 1
 214.408203125 804.19921875 l 1
 155.469726562 613.958007812 l 1
 141.868164062 584.487304688 l 1
 161.223632812 609.424804688 l 2
 190.8671875 633.139648438 217.895507812 639.939453125 238.296875 639.939453125 c 0
 285.901367188 639.939453125 319.903320312 605.936523438 297.409179688 533.397460938 c 2
 244.922851562 366.697265625 l 2
 225.7421875 300.958007812 182.671875 253.528320312 123.559570312 253.528320312 c 0
 95.310546875 253.528320312 70.3759765625 264.688476562 55.728515625 284.217773438 c 2
 49.9736328125 304.618164062 l 1
 49.9736328125 282.998046875 l 1
 43.34765625 260.329101562 l 1
 45.091796875 253.528320312 l 1
 39.51171875 256.841796875 l 1
 0.80078125 256.841796875 l 1
 -6 254.575195312 l 1
 -1.4658203125 260.329101562 l 1
 167.500976562 804.19921875 l 1
 165.7578125 811 l 1
218.94140625 605.936523438 m 0
 190.693359375 605.936523438 141.694335938 572.98046875 124.780273438 516.483398438 c 2
 74.9091796875 356.583007812 l 2
 60.087890625 305.66796875 81.7099609375 288.405273438 117.979492188 288.405273438 c 0
 154.249023438 288.405273438 179.184570312 307.932617188 197.319335938 364.4296875 c 2
 252.76953125 543.51171875 l 2
 266.545898438 589.197265625 252.76953125 605.936523438 218.94140625 605.936523438 c 0
EndSplineSet
Validated: 524321
EndChar

StartChar: c
Encoding: 99 99 35
Width: 218
GlyphClass: 1
Flags: HMW
HStem: 524.861 3.29297
VStem: 130.71 52.4688 192.659 47.3555
LayerCount: 2
Fore
SplineSet
161.9140625 644.23828125 m 0
 106.897460938 645.069335938 57.646484375 604.813476562 40.08203125 553.6796875 c 0
 20.2529296875 492.141601562 1.23828125 430.284179688 -17.169921875 368.298828125 c 0
 -26.546875 333.5625 -28.6279296875 285.139648438 7.892578125 265.18359375 c 0
 53.8955078125 243.334960938 117.025390625 253.346679688 147.392578125 296.541015625 c 0
 166.373046875 317.921875 169.319335938 348.189453125 183.185546875 371.4609375 c 1
 171.936523438 367.005859375 159.490234375 370.075195312 147.703125 369.208984375 c 0
 132.450195312 368.897460938 130.873046875 376.190429688 130.716796875 357.595703125 c 1
 121.149414062 327.439453125 104.196289062 290.169921875 68.0390625 287.431640625 c 1
 34.013671875 278.744140625 14.427734375 315.038085938 23.787109375 343.912109375 c 0
 33.771484375 387.607421875 49.4755859375 429.795898438 62.12890625 472.7890625 c 0
 77.0185546875 514.461914062 82.7734375 562.563476562 116.365234375 594.3203125 c 0
 136.47265625 613.91015625 182.786132812 620.185546875 192.666015625 587.455078125 c 0
 196.045898438 565.282226562 190.413085938 540.000976562 176.373046875 522.435546875 c 1
 187.310546875 526.821289062 199.357421875 524.16796875 210.796875 524.861328125 c 0
 218.146484375 529.194335938 235.306640625 516.038085938 228.19921875 528.154296875 c 1
 228.060546875 528.154296875 l 1
 234.821289062 546.772460938 242.1015625 565.955078125 240.021484375 586.1796875 c 0
 238.305664062 622.697265625 200.7265625 644.375976562 167.255859375 644.029296875 c 0
 165.470703125 644.142578125 163.689453125 644.211914062 161.9140625 644.23828125 c 0
EndSplineSet
EndChar

StartChar: d
Encoding: 100 100 36
Width: 301
GlyphClass: 1
Flags: W
HStem: 257.651 33.7129<38.3285 110.898> 606.279 38.1338<125.996 207.001>
LayerCount: 2
Fore
SplineSet
168.1015625 606.279296875 m 0
 146.762695312 606.279296875 109.24609375 593.663085938 82.23828125 507.537109375 c 2
 41.4541015625 377.48046875 l 2
 21.376953125 310.431640625 39.0546875 291.364257812 69.486328125 291.364257812 c 0
 100.16796875 291.364257812 143.479492188 321.54296875 157.243164062 367.504882812 c 2
 157.243164062 367.504882812 214.202148438 549.063476562 214.189453125 549.079101562 c 2
 222.467773438 575.475585938 202.952148438 606.279296875 168.1015625 606.279296875 c 0
340.124023438 803 m 1
 194.99609375 337.200195312 l 2
 184.598632812 303.705078125 179.465820312 274.4453125 178.076171875 265.479492188 c 2
 179.844726562 258.915039062 l 1
 174.03515625 262.196289062 l 1
 139.185546875 262.196289062 l 1
 132.62109375 258.915039062 l 1
 136.28125 265.479492188 l 2
 137.923828125 268.889648438 138.428710938 275.581054688 140.575195312 285.682617188 c 2
 149.666992188 312.578125 l 1
 133.883789062 290.1015625 l 2
 104.3359375 266.616210938 81.228515625 257.651367188 53.3232421875 257.651367188 c 0
 -25.08984375 257.651367188 -20.669921875 324.826171875 -7.4111328125 370.9140625 c 2
 37.666015625 516.627929688 l 2
 71.8837890625 626.356445312 133.883789062 644.413085938 163.934570312 644.413085938 c 0
 185.147460938 644.413085938 209.139648438 637.719726562 226.690429688 610.572265625 c 2
 230.225585938 588.22265625 l 1
 232.373046875 610.572265625 l 1
 292.728515625 803.383789062 l 1
 290.58203125 810.075195312 l 1
 296.01171875 806.793945312 l 1
 337.552734375 806.793945312 l 1
 344.498046875 809.065429688 l 1
 340.124023438 803 l 1
EndSplineSet
EndChar

StartChar: e
Encoding: 101 101 37
Width: 230
GlyphClass: 1
Flags: HMW
HStem: 432.104 38.3125<79.9448 182.349 79.9448 201.884 79.9448 201.884> 607.863 36.0762
LayerCount: 2
Fore
SplineSet
225.755859375 428.515625 m 1
 227.49609375 421.73046875 l 1
 222.973632812 426.073242188 l 1
 62.4169921875 426.073242188 l 1
 54.412109375 430.776367188 l 1
 56.6845703125 421.73046875 l 1
 33.02734375 341.538085938 l 2
 21.7216796875 305.181640625 35.10546875 282.55859375 75.986328125 282.55859375 c 0
 118.780273438 282.55859375 143.83984375 301.87109375 160.712890625 363.97265625 c 2
 158.97265625 370.756835938 l 1
 163.665039062 367.274414062 l 1
 202.099609375 367.274414062 l 1
 208.895507812 369.716796875 l 1
 204.202148438 363.97265625 l 2
 194.111328125 315.438476562 166.956054688 247.594726562 75.4560546875 247.594726562 c 0
 16.4853515625 247.594726562 -35.3525390625 276.8203125 -10.65234375 359.44921875 c 2
 35.810546875 507.48828125 l 2
 68.6884765625 615.166992188 118.249023438 638.825195312 176.001953125 638.825195312 c 0
 274.287109375 638.825195312 266.291992188 564.201171875 251.853515625 515.493164062 c 2
 225.755859375 428.515625 l 1
170.267578125 602.640625 m 0
 146.611328125 602.640625 109.376953125 593.595703125 84.5009765625 514.271484375 c 2
 70.763671875 470.263671875 l 1
 63.9892578125 461.216796875 l 1
 75.4560546875 464.69921875 l 1
 186.280273438 464.69921875 l 1
 193.0546875 459.99609375 l 1
 190.6328125 469.212890625 l 1
 213.41796875 540.540039062 l 2
 225.76953125 583.33203125 208.88671875 602.640625 170.267578125 602.640625 c 0
EndSplineSet
EndChar

StartChar: f
Encoding: 102 102 38
Width: 233
GlyphClass: 1
Flags: HMW
HStem: 595.467 38.3105 764.164 40.9961
LayerCount: 2
Fore
SplineSet
217.219726562 805.16015625 m 0
 184.736328125 805.103515625 149.758789062 792.48046875 136.108398438 760.646484375 c 0
 122.172851562 725.625976562 112.916992188 688.87890625 101.129882812 653.068359375 c 0
 95.0634765625 647.053710938 101.127929688 627.243164062 95.0615234375 631.455078125 c 0
 84.2978515625 636.620117188 71.0908203125 632.390625 59.3037109375 633.77734375 c 1
 49.0771484375 630.171875 40.064453125 644.333984375 43.7041015625 628.958984375 c 1
 38.50390625 617.283203125 38.677734375 602.295898438 29.3173828125 593.212890625 c 1
 42.7509765625 597.875976562 57.53515625 594.426757812 71.5751953125 595.466796875 c 0
 81.2822265625 595.120117188 93.5888671875 602.954101562 81.2822265625 589.74609375 c 1
 51.365234375 492.717773438 21.4482421875 395.690429688 -8.4521484375 298.662109375 c 0
 -14.345703125 283.991210938 -15.2119140625 266.688476562 -24.9189453125 254 c 1
 -14.345703125 258.263671875 -2.6279296875 255.387695312 8.4658203125 256.25390625 c 0
 16.162109375 260.760742188 31.068359375 247.465820312 27.9482421875 259.720703125 c 1
 125.967773438 580.294921875 l 1
 133.767578125 586.586914062 121.634765625 606.017578125 133.768554688 596.224609375 c 1
 148.831054688 594.491210938 164.7421875 596.05078125 180.168945312 595.53125 c 0
 193.341796875 595.202148438 193.342773438 587.48828125 193.342773438 602.86328125 c 1
 198.196289062 613.733398438 197.15625 628.389648438 207.036132812 636.0859375 c 1
 190.5 631.232421875 172.750976562 635.044921875 155.590820312 633.83203125 c 0
 147.270507812 635.963867188 131.49609375 624.8359375 143.629882812 638.26953125 c 1
 152.174804688 662.25 158.76171875 687.169921875 166.561523438 711.509765625 c 0
 172.489257812 734.751953125 183.618164062 764.336914062 212.252929688 764.1640625 c 1
 223.103515625 771.842773438 253.419921875 752.23828125 250.299804688 761.7890625 c 1
 252.379882812 774.033203125 258.272460938 786.134765625 261.739257812 798.3203125 c 1
 261.323242188 798.263671875 l 1
 275.623046875 806.045898438 228.181640625 803.272460938 223.674804688 805.005859375 c 0
 221.538085938 805.112304688 219.385742188 805.1640625 217.219726562 805.16015625 c 0
EndSplineSet
Validated: 524329
EndChar

StartChar: g
Encoding: 103 103 39
Width: 267
GlyphClass: 1
Flags: HMW
HStem: 601.752 36.7715
VStem: -43.1745 36.3828<206.9 206.9>
LayerCount: 2
Fore
SplineSet
189.666992188 640 m 2
 190.366210938 639.981445312 l 2
 201.463867188 639.981445312 227.2421875 637.900390625 244.58203125 610.676757812 c 2
 244.959960938 589.174804688 l 1
 251.682617188 612.930664062 l 2
 255.982421875 621.947265625 258.85546875 627.49609375 259.2421875 630.963867188 c 2
 259.272460938 636.686523438 l 1
 264.087890625 633.21875 l 1
 305.704101562 633.21875 l 1
 313.075195312 637.900390625 l 1
 307.100585938 630.963867188 l 2
 302.80078125 621.947265625 290.537109375 592.81640625 280.091796875 559.002929688 c 2
 280.091796875 559.002929688 198.09765625 256.638671875 167.571289062 197.07421875 c 0
 136.961914062 137.514648438 35.537109375 137.16796875 3.3154296875 150.745117188 c 0
 -28.9091796875 164.317382812 -40.412109375 171.547851562 -27.3017578125 204.615234375 c 2
 -32.56640625 209.920898438 l 1
 -27.2919921875 207.771484375 l 1
 7 208 l 1
 13 209 l 5
 9 204 l 2
 5.3642578125 199.455078125 4.7001953125 188.340820312 16 183 c 0
 47.0478515625 168.325195312 108.37109375 177.9921875 126.751953125 205.09375 c 0
 145 232 154.430664062 265.649414062 162.752929688 301.37890625 c 1
 144.625 281.090820312 l 2
 98.21875 247.451171875 68.4296875 250.0234375 53.69140625 250.0234375 c 0
 10.861328125 250.0234375 -18.72265625 277.07421875 4.259765625 351.809570312 c 1
 4.259765625 351.809570312 l 1
 59.1748046875 531.798828125 l 2
 75.435546875 585.899414062 124.295898438 640 189.666992188 640 c 2
185.291992188 606.1875 m 0
 162.922851562 606.1875 124.000976562 596.129882812 106.939453125 538.734375 c 2
 48.1083984375 346.954101562 l 2
 33.90234375 299.616210938 59.619140625 286.090820312 83.201171875 286.090820312 c 0
 123.776367188 286.090820312 159.4296875 316.607421875 170.9453125 356.142578125 c 2
 222.543945312 525.036132812 l 2
 237.088867188 574.627929688 218.064453125 606.1875 185.291992188 606.1875 c 0
4.259765625 351.809570312 m 1025
EndSplineSet
Validated: 524325
EndChar

StartChar: h
Encoding: 104 104 40
Width: 289
GlyphClass: 1
Flags: W
HStem: 600.157 34.8379<166.107 237.178>
LayerCount: 2
Fore
SplineSet
150.907226562 803.997070312 m 1
 155.586914062 800.704101562 l 1
 197.186523438 800.704101562 l 1
 204.120117188 802.95703125 l 1
 199.09375 797.41015625 l 1
 140.680664062 610.383789062 l 1
 127.16015625 585.59765625 l 1
 146.2265625 605.876953125 l 2
 175.693359375 626.155273438 204.120117188 634.995117188 225.09375 634.995117188 c 0
 289.747070312 634.995117188 297.200195312 581.090820312 278.133789062 520.250976562 c 2
 197.013671875 256.612304688 l 1
 198.747070312 249.852539062 l 1
 193.893554688 253.145507812 l 1
 152.640625 253.145507812 l 1
 145.70703125 250.892578125 l 1
 150.213867188 256.612304688 l 1
 235.493164062 534.810546875 l 2
 251.787109375 585.59765625 230.293945312 600.157226562 207.93359375 600.157226562 c 0
 168.06640625 600.157226562 130.106445312 570.864257812 90.4130859375 445.716796875 c 2
 31.48046875 256.612304688 l 1
 34.080078125 249.852539062 l 1
 28.3603515625 253.145507812 l 1
 -12.8935546875 253.145507812 l 1
 -20 250.892578125 l 1
 -15.4931640625 256.612304688 l 1
 152.640625 797.41015625 l 1
 150.907226562 803.997070312 l 1
EndSplineSet
Validated: 524321
EndChar

StartChar: i
Encoding: 105 105 41
Width: 191
GlyphClass: 1
Flags: HMW
HStem: 751.506 52.8926 801.123 3.44922
LayerCount: 2
Fore
SplineSet
169.512695312 805.1328125 m 4x80
 167.936523438 805.467773438 169.041015625 801.765625 170.340820312 799.087890625 c 4
 166.874023438 788.592773438 163.581054688 778.087890625 160.114257812 767.6015625 c 4
 157.6875 761.93359375 157.340820312 755.208984375 153.354492188 750.373046875 c 4
 148.500976562 745.588867188 153.702148438 748.119140625 157.168945312 749.33203125 c 4
 167.03125 749.8515625 177.06640625 749.374023438 186.946289062 749.505859375 c 4x80
 191.453125 748.8125 196.654296875 750.944335938 200.467773438 748.119140625 c 4
 205.494140625 743.491210938 202.200195312 749.228515625 202.200195312 752.798828125 c 4
 207.053710938 768.225585938 212.079101562 783.651367188 216.932617188 799.078125 c 5
 217.106445312 799.123046875 l 6
 217.106445312 799.798828125 218.840820312 800.318359375 218.840820312 801.01171875 c 4
 223.694335938 805.552734375 219.879882812 804.131835938 215.719726562 802.572265625 c 4x40
 205.440429688 802.225585938 195.126953125 802.525390625 184.727539062 802.3984375 c 4
 180.567382812 802.91796875 175.71484375 801.306640625 172.075195312 803.265625 c 4
 170.861328125 804.461914062 170.038085938 805.021484375 169.512695312 805.1328125 c 4x80
115.588867188 636.1484375 m 4
 114.012695312 636.493164062 115.1171875 632.6640625 116.416992188 629.986328125 c 4
 79.9296875 512.201171875 43.4619140625 394.416015625 6.9755859375 276.630859375 c 4
 4.548828125 270.012695312 3.5087890625 262.698242188 0.0419921875 256.5625 c 4
 -4.2919921875 251.795898438 -0.9990234375 252.888671875 3.1611328125 254.69140625 c 4
 13.283203125 255.2109375 23.4931640625 254.73046875 33.7197265625 254.865234375 c 4
 38.2265625 254.171875 43.4267578125 256.059570312 47.5869140625 253.650390625 c 4
 52.9599609375 249.212890625 51.052734375 254.743164062 49.3193359375 258.279296875 c 4
 87.4521484375 382.155273438 125.5859375 506.030273438 163.719726562 629.90625 c 5
 162.471679688 629.986328125 l 6
 162.471679688 630.333007812 164.206054688 630.854492188 164.206054688 631.201171875 c 4
 169.40625 635.482421875 165.939453125 634.321289062 161.606445312 632.587890625 c 4
 151.344726562 632.241210938 140.858398438 632.543945312 130.631835938 632.4140625 c 4
 126.471679688 633.00390625 121.444335938 630.78515625 118.151367188 634.216796875 c 4
 116.9375 635.456054688 116.114257812 636.033203125 115.588867188 636.1484375 c 4
EndSplineSet
EndChar

StartChar: j
Encoding: 106 106 42
Width: 313
GlyphClass: 1
Flags: W
HStem: 231.146 37.5771<53.8572 142.635> 761.438 50.8057<316.65 340.971>
VStem: 1.69922 47.0449<273.198 365.39>
LayerCount: 2
Fore
SplineSet
344.96875 764.603515625 m 5
 346.633789062 758.2734375 l 5
 340.970703125 761.438476562 l 5
 302.158203125 761.438476562 l 5
 295.661132812 759.2734375 l 5
 299.9921875 764.603515625 l 5
 313.985351562 808.913085938 l 5
 312.319335938 815.409179688 l 5
 316.650390625 812.244140625 l 5
 356.793945312 812.244140625 l 5
 363.291992188 814.576171875 l 5
 358.9609375 808.913085938 l 5
 344.96875 764.603515625 l 5
208.520507812 315.229492188 m 6
 193.728515625 267.7890625 159.081054688 231.145507812 89.7861328125 231.145507812 c 4
 15.560546875 231.145507812 1.69921875 277.65234375 1.69921875 297.506835938 c 4
 1.69921875 313.232421875 7.7001953125 334.1484375 19.560546875 366.796875 c 5
 18.2265625 372.661132812 l 5
 23.15625 368.66796875 l 5
 63.53125 368.66796875 l 5
 69.6630859375 370.798828125 l 5
 64.6044921875 366.796875 l 5
 54.7431640625 339.079101562 48.744140625 320.291992188 48.744140625 307.365234375 c 4
 48.744140625 286.709960938 59.66796875 268.72265625 95.3818359375 268.72265625 c 4
 113.10546875 268.72265625 149.744140625 274.720703125 166.534179688 329.08984375 c 6
 260.75390625 633.45703125 l 5
 259.419921875 639.319335938 l 5
 264.348632812 636.383789062 l 5
 303.92578125 636.383789062 l 5
 309.9296875 638.254882812 l 5
 305.926757812 633.45703125 l 5
 306.723632812 633.45703125 l 5
 208.520507812 315.229492188 l 6
EndSplineSet
Validated: 524289
EndChar

StartChar: k
Encoding: 107 107 43
Width: 203
GlyphClass: 1
Flags: HMW
HStem: 630.133 5.7207
LayerCount: 2
Fore
SplineSet
195.981445312 806.06640625 m 1
 185.685546875 801.733398438 174.211914062 804.680664062 163.291992188 803.814453125 c 0
 155.76953125 799.654296875 138.435546875 812.255859375 144.848632812 800.34765625 c 1
 92.796875 632.61328125 40.7265625 464.876953125 -11.3251953125 297.140625 c 0
 -17.21875 282.970703125 -17.9111328125 266.029296875 -27.6181640625 254 c 1
 -16.646484375 258.055664062 -4.634765625 255.213867188 6.8056640625 256.080078125 c 0
 13.9814453125 260.240234375 31.48828125 247.639648438 24.3818359375 259.720703125 c 1
 46.447265625 330.32421875 68.529296875 400.9296875 90.5947265625 471.533203125 c 1
 104.963867188 411.59765625 119.317382812 351.662109375 133.704101562 291.7265625 c 0
 135.263671875 278.807617188 143.41015625 265.83984375 139.596679688 252.9609375 c 1
 150.083007812 259.426757812 163.446289062 254.520507812 175.233398438 256.080078125 c 0
 181.646484375 259.200195312 202.448242188 249.51171875 191.354492188 259.720703125 c 1
 174.784179688 324.0234375 158.263671875 388.328125 141.624023438 452.630859375 c 1
 145.090820312 462.796875 124.811523438 469.765625 138.504882812 471.533203125 c 1
 289.303710938 630.1328125 l 1
 289.374023438 630.1328125 l 2
 292.494140625 632.0390625 295.439453125 633.947265625 298.559570312 635.853515625 c 1
 282.907226562 631.537109375 266.40625 634.465820312 250.459960938 633.599609375 c 1
 242.2265625 628.989257812 227.146484375 641.5390625 229.573242188 632.560546875 c 1
 91.2529296875 478.12109375 l 1
 120.615234375 572.559570312 149.98046875 666.997070312 179.342773438 761.435546875 c 0
 185.236328125 776.09765625 186.274414062 793.377929688 195.981445312 806.06640625 c 1
EndSplineSet
Validated: 524329
EndChar

StartChar: l
Encoding: 108 108 44
Width: 171
GlyphClass: 1
Flags: W
LayerCount: 2
Fore
SplineSet
206 806.06640625 m 1
 195.6171875 801.75 184.0546875 804.680664062 173.134765625 803.814453125 c 0
 165.612304688 799.654296875 148.280273438 812.255859375 154.693359375 800.34765625 c 1
 102.953125 633.609375 51.1953125 466.873046875 -0.544921875 300.134765625 c 0
 -6.611328125 284.973632812 -7.82421875 267.329101562 -17.357421875 254 c 1
 -6.4375 258.055664062 5.4521484375 255.213867188 16.892578125 256.080078125 c 0
 24.068359375 260.240234375 41.4013671875 247.69140625 34.294921875 259.720703125 c 1
 90.28125 439.9296875 146.26953125 620.138671875 202.255859375 800.34765625 c 1
 201.4921875 800.34765625 l 1
 203.051757812 802.25390625 204.266601562 804.16015625 206 806.06640625 c 1
EndSplineSet
Validated: 524329
EndChar

StartChar: m
Encoding: 109 109 45
Width: 419
GlyphClass: 1
Flags: W
HStem: 596.604 39.0195<123.024 203.95 297.504 378.034>
LayerCount: 2
Fore
SplineSet
52.3837890625 640.645507812 m 5
 57.4853515625 635.623046875 l 5
 100.923828125 635.623046875 l 5
 107.998046875 638.038085938 l 5
 103.350585938 633.208984375 l 6
 101.4921875 628.379882812 100.924804688 618.90625 97.0244140625 603.3046875 c 6
 86.458984375 573.032226562 l 5
 103.350585938 599.591796875 l 5
 139.380859375 635.623046875 171.483398438 635.038085938 183.555664062 635.038085938 c 4
 226.5703125 635.038085938 245.232421875 615.732421875 247.461914062 579.02734375 c 5
 265.129882812 596.458007812 l 6
 301.161132812 632.489257812 348.263671875 634.903320312 360.334960938 634.903320312 c 4
 416.983398438 634.903320312 444.852539062 594.041015625 426.651367188 536.09375 c 6
 345.340820312 252.157226562 l 1
 347.584960938 245.094726562 l 1
 341.826171875 248.625976562 l 1
 296.868164062 248.625976562 l 1
 289.817382812 246.024414062 l 1
 294.46484375 252.157226562 l 1
 379.469726562 545.565429688 l 6
 390.428710938 580.66796875 363.859375 596.458007812 342.129882812 596.458007812 c 4
 312.172851562 596.458007812 273.836914062 571.272460938 244.641601562 489.413085938 c 6
 177.909179688 251.017578125 l 1
 180.130859375 243.9609375 l 1
 174.395507812 247.486328125 l 1
 129.436523438 247.486328125 l 1
 122.385742188 244.890625 l 1
 127.033203125 251.017578125 l 1
 206.908203125 545.7109375 l 6
 217.865234375 580.813476562 187.012695312 596.603515625 165.283203125 596.603515625 c 4
 133.708984375 596.603515625 91.01953125 571.739257812 61.861328125 478.875 c 6
 2.0205078125 251.017578125 l 1
 3.857421875 243.9609375 l 1
 -2.0830078125 247.486328125 l 1
 -45.544921875 247.486328125 l 1
 -52.77734375 244.890625 l 1
 -47.9482421875 251.017578125 l 1
 36.037109375 556.141601562 l 6
 46.99609375 592.172851562 52.3857421875 623.5625 54.2431640625 633.219726562 c 6
 52.3837890625 640.645507812 l 5
EndSplineSet
EndChar

StartChar: n
Encoding: 110 110 46
Width: 271
GlyphClass: 1
Flags: W
HStem: 603.382 36.3711<130.663 202.963>
LayerCount: 2
Fore
SplineSet
160.189453125 258.463867188 m 1
 249.098632812 546.276367188 l 2
 266.036132812 601.107421875 240.13671875 639.752929688 186.370117188 639.752929688 c 0
 175.125 639.752929688 141.916015625 637.469726562 107.65234375 603.381835938 c 2
 91.6630859375 578.254882812 l 1
 101.853515625 606.89453125 l 2
 105.369140625 621.655273438 105.895507812 630.616210938 107.65234375 635.184570312 c 2
 112.220703125 639.752929688 l 1
 105.369140625 637.469726562 l 1
 64.2529296875 637.469726562 l 1
 59.6845703125 642.212890625 l 1
 61.4404296875 635.184570312 l 2
 60.2109375 626.047851562 54.587890625 596.353515625 44.2216796875 562.265625 c 2
 -49.431640625 258.463867188 l 1
 -54 252.666015625 l 1
 -47.1474609375 255.125976562 l 1
 -6.03125 255.125976562 l 1
 -0.232421875 251.787109375 l 1
 -1.990234375 258.463867188 l 1
 68.8212890625 489.169921875 l 2
 96.2314453125 577.024414062 139.631835938 603.381835938 169.327148438 603.381835938 c 0
 189.884765625 603.381835938 215.010742188 588.446289062 204.64453125 555.237304688 c 2
 112.220703125 258.463867188 l 1
 107.65234375 252.666015625 l 1
 114.504882812 255.125976562 l 1
 156.8515625 255.125976562 l 1
 162.473632812 251.787109375 l 1
 160.189453125 258.463867188 l 1
EndSplineSet
EndChar

StartChar: o
Encoding: 111 111 47
Width: 277
GlyphClass: 1
Flags: HMW
HStem: 606.074 38.3066
LayerCount: 2
Fore
SplineSet
217.102539062 360.5390625 m 2
 195.086914062 291.98828125 162.688476562 246.520507812 76.4169921875 246.520507812 c 0
 15.919921875 246.520507812 -38.6669921875 276.772460938 -13.25 358.03125 c 2
 46.3525390625 551.333984375 l 2
 66.0419921875 614.336914062 126.525390625 649.064453125 176.462890625 649.064453125 c 0
 269.713867188 649.064453125 290.297851562 595.544921875 269.713867188 529.142578125 c 2
 217.102539062 360.5390625 l 2
178.80078125 609.5078125 m 0
 147.298828125 609.5078125 111.319335938 601.451171875 90.37890625 536.122070312 c 2
 32.3916015625 346.752929688 l 2
 18.431640625 302.364257812 41.7041015625 285.001953125 78.7548828125 285.001953125 c 0
 127.619140625 285.001953125 148.719726562 295.204101562 171.809570312 372.16796875 c 2
 223.197265625 538.62890625 l 2
 240.73828125 595.546875 211.376953125 609.5078125 178.80078125 609.5078125 c 0
EndSplineSet
EndChar

StartChar: p
Encoding: 112 112 48
Width: 284
GlyphClass: 1
Flags: HMW
HStem: 609.898 26.9336
VStem: 104.042 44.373
LayerCount: 2
Fore
SplineSet
228.4375 643.611328125 m 4
 207.0703125 644.025390625 184.796875 636.965820312 167.9921875 625.302734375 c 4
 154.142578125 619.315429688 147.380859375 606.298828125 139.927734375 594.130859375 c 5
 140.100585938 599.143554688 148.421875 617.592773438 148.421875 627.646484375 c 5
 156.880859375 644.875976562 149.981445312 635.791992188 136.634765625 636.83203125 c 4
 125.9921875 637.698242188 113.755859375 634.942382812 104.048828125 638.044921875 c 4
 98.8486328125 638.599609375 98.6748046875 594.0859375 90.875 580.982421875 c 4
 52.0830078125 452.807617188 11.4892578125 325.166015625 -28.013671875 197.19921875 c 4
 -34.080078125 182.0390625 -35.466796875 164.401367188 -45 151.072265625 c 5
 -34.1669921875 155.458007812 -22.1904296875 152.459960938 -10.75 153.326171875 c 4
 -3.7470703125 157.486328125 13.7587890625 144.954101562 6.65234375 156.79296875 c 5
 15.5615234375 185.725585938 24.541015625 214.657226562 33.380859375 243.58984375 c 4
 37.7138671875 261.61328125 47.23046875 278.82421875 47.248046875 297.48046875 c 4
 46.2080078125 314.987304688 48.8076171875 306.094726562 51.75390625 294.255859375 c 4
 65.5166015625 266.1328125 100.11328125 250.620117188 130.94921875 254 c 4
 184.890625 257.577148438 221.168945312 306.931640625 234.515625 355.423828125 c 5
 233.927734375 355.513671875 l 5
 248.938476562 404.498046875 263.861328125 453.482421875 278.94140625 502.466796875 c 4
 290.381835938 539.225585938 306.693359375 581.490234375 283.44921875 617.068359375 c 4
 270.267578125 635.307617188 249.8046875 643.197265625 228.4375 643.611328125 c 4
214.115234375 609.8984375 m 4
 241.354492188 609.157226562 257.026367188 583.294921875 249.388671875 557.1953125 c 4
 230.772460938 490.459960938 209.26171875 424.493164062 189.484375 358.068359375 c 4
 181.840820312 321.671875 150.952148438 286.993164062 111.189453125 289.818359375 c 4
 80.4052734375 288.353515625 58.7392578125 320.286132812 67.232421875 348.8984375 c 4
 83.5087890625 406.0546875 101.93359375 462.655273438 118.919921875 519.591796875 c 4
 129.926757812 561.649414062 161.525390625 606.912109375 208.515625 609.703125 c 4
 210.430664062 609.884765625 212.298828125 609.948242188 214.115234375 609.8984375 c 4
EndSplineSet
EndChar

StartChar: q
Encoding: 113 113 49
Width: 282
GlyphClass: 1
Flags: W
HStem: 260.522 33.4453<44.6925 116.174> 606.299 34.2939<132.677 219.822>
LayerCount: 2
Fore
SplineSet
53.6904296875 529.283203125 m 6
 72.556640625 593.943359375 114.907226562 640.592773438 173.049804688 640.592773438 c 4
 200.834960938 640.592773438 225.368164062 629.622070312 239.775390625 610.412109375 c 6
 245.427734375 590.344726562 l 5
 245.427734375 611.606445312 l 5
 251.959960938 633.904296875 l 5
 250.243164062 640.592773438 l 5
 255.728515625 637.337890625 l 5
 293.8125 637.337890625 l 5
 300.491210938 639.567382812 l 5
 296.03125 633.904296875 l 5
 129.8359375 98.962890625 l 5
 131.553710938 92.2744140625 l 5
 127.09375 95.36328125 l 5
 85.765625 95.36328125 l 5
 79.0654296875 93.298828125 l 5
 83.6923828125 98.962890625 l 5
 141.666015625 286.083007812 l 5
 155.044921875 315.0703125 l 5
 136.012695312 290.54296875 l 6
 106.85546875 267.21875 80.2685546875 260.522460938 60.201171875 260.522460938 c 4
 13.37890625 260.522460938 -20.064453125 293.970703125 2.0595703125 365.317382812 c 6
 53.6904296875 529.283203125 l 6
79.2333984375 293.967773438 m 4
 107.017578125 293.967773438 155.21875 326.381835938 171.856445312 381.952148438 c 6
 220.911132812 539.229492188 l 6
 235.489257812 589.310546875 214.209960938 606.298828125 178.53515625 606.298828125 c 4
 142.860351562 606.298828125 118.341796875 587.083984375 100.50390625 531.513671875 c 6
 45.96484375 355.375 l 6
 32.416015625 310.438476562 45.958984375 293.967773438 79.2333984375 293.967773438 c 4
EndSplineSet
Validated: 524321
EndChar

StartChar: r
Encoding: 114 114 50
Width: 216
GlyphClass: 1
Flags: W
LayerCount: 2
Fore
SplineSet
229.3203125 639.91015625 m 0
 223.475585938 640.166015625 205.930664062 635.016601562 202.1171875 636.470703125 c 0
 163.083007812 631.052734375 134.482421875 600.323242188 116.369140625 567.412109375 c 1
 123.475585938 585.310546875 130.409179688 603.190429688 132.142578125 622.60546875 c 1
 139.76953125 639.921875 137.86328125 633.700195312 122.95703125 633.802734375 c 0
 112.227539062 634.668945312 99.8515625 631.84375 90.14453125 635.189453125 c 0
 84.4248046875 635.5 84.7705078125 591.059570312 76.970703125 577.833984375 c 0
 49.87890625 485.428710938 20.2578125 393.756835938 -7.83984375 301.642578125 c 0
 -14.080078125 285.974609375 -15.466796875 267.98828125 -25 254 c 1
 -14.5654296875 258.298828125 -2.8828125 255.387695312 8.037109375 256.25390625 c 0
 15.38671875 260.586914062 32.19921875 247.552734375 25.958984375 259.720703125 c 1
 49.8271484375 335.330078125 71.615234375 411.625 97.3203125 486.623046875 c 0
 112.556640625 524.215820312 130.409179688 570.948242188 173.77734375 582.388671875 c 1
 184.00390625 591.887695312 215.568359375 573.896484375 211.58203125 582.736328125 c 1
 214.875 600.147460938 222.674804688 617.5859375 227.701171875 635.005859375 c 1
 227.650390625 635.083984375 l 1
 232.216796875 638.561523438 231.9765625 639.793945312 229.3203125 639.91015625 c 0
EndSplineSet
Validated: 524329
EndChar

StartChar: s
Encoding: 115 115 51
Width: 238
GlyphClass: 1
Flags: HMW
VStem: -3.26949 54.9824
LayerCount: 2
Fore
SplineSet
174.501953125 644.09765625 m 0
 165.077148438 644.270507812 155.709960938 643.291015625 147.1171875 641.423828125 c 0
 96.0703125 633.08984375 55.9619140625 586.918945312 54.228515625 535.345703125 c 0
 50.2939453125 507.168945312 60.1201171875 477.864257812 83.173828125 460.392578125 c 0
 106.798828125 437.282226562 145.41796875 421.602539062 149.404296875 384.84375 c 1
 146.959960938 350.029296875 131.15234375 310.36328125 97.681640625 294.625 c 0
 74.87109375 283.592773438 35.2470703125 286.5546875 32.994140625 318.314453125 c 0
 32.751953125 339.166015625 40.4482421875 360.78125 51.71484375 378.080078125 c 1
 40.62109375 373.763671875 28.33203125 375.323242188 16.71875 373.58984375 c 1
 9.9072265625 368.528320312 -7.7744140625 379.518554688 -3.267578125 370.57421875 c 1
 -9.6806640625 344.209960938 -22.6806640625 314.176757812 -5.34765625 288.46484375 c 0
 18.3642578125 250.046875 72.6708984375 248.260742188 111.306640625 261.330078125 c 0
 172.077148438 281.798828125 202.669921875 351.517578125 193.830078125 411.931640625 c 1
 181.159179688 448.607421875 142.177734375 464.981445312 116.4375 491.037109375 c 1
 89.9345703125 512.169921875 98.4111328125 549.71875 113.6640625 574.826171875 c 0
 128.60546875 601.145507812 168.905273438 622.518554688 194.818359375 599.341796875 c 1
 207.80078125 578.65625 200.192382812 549.331054688 187.5390625 530.255859375 c 1
 202.506835938 534.600585938 218.653320312 531.400390625 234.068359375 532.314453125 c 0
 234.75390625 532.356445312 241.247070312 527.513671875 239.5390625 529.8203125 c 0
 239.365234375 553.435546875 253.232421875 580.02734375 241.619140625 604.50390625 c 0
 231.583007812 632.713867188 202.77734375 643.580078125 174.501953125 644.09765625 c 0
EndSplineSet
Validated: 524329
EndChar

StartChar: t
Encoding: 116 116 52
Width: 183
GlyphClass: 1
Flags: HMW
HStem: 601.021 38.1367 636.91 4.50586
LayerCount: 2
Fore
SplineSet
184.05078125 705.62890625 m 4x40
 183.624023438 705.46484375 182.612304688 704.491210938 180.759765625 702.39453125 c 4
 167.06640625 693.767578125 150.478515625 689.607421875 135.572265625 682.708984375 c 5
 121.532226562 684.677734375 129.852539062 677.231445312 124.1328125 666.259765625 c 4
 121.706054688 652.779296875 111.479492188 639.517578125 116.6796875 625.82421875 c 5
 105.256835938 633.8671875 90.5576171875 628.771484375 77.384765625 630.158203125 c 5
 68.37109375 625.409179688 54.6787109375 641.286132812 61.091796875 626.96875 c 5
 55.544921875 614.787109375 55.197265625 599.38671875 45.6640625 589.59375 c 5
 59.375 594.672851562 74.576171875 590.80859375 88.962890625 592.021484375 c 4x80
 96.9365234375 590.478515625 113.403320312 600.2890625 100.75 587.705078125 c 5
 83.572265625 537.19921875 68.509765625 485.564453125 52.216796875 434.623046875 c 4
 40.2744140625 393.508789062 24.484375 353.353515625 16.1640625 311.31640625 c 4
 10.7041015625 285.881835938 24.77734375 257.185546875 51.591796875 251.77734375 c 5
 71.7158203125 241.23828125 97.9072265625 253.978515625 115.552734375 245 c 5
 110.1796875 254.653320312 118.325195312 264.727539062 120.05859375 274.58984375 c 4
 123.872070312 288.265625 132.590820312 291.888671875 114.166015625 284.6953125 c 4
 92.412109375 278.975585938 54.9560546875 284.208007812 64.142578125 315.130859375 c 4
 87.4033203125 395.745117188 113.196289062 475.690429688 137.4453125 556.041015625 c 4
 139.872070312 569.537109375 150.098632812 582.826171875 144.8984375 596.51953125 c 5
 154.5703125 587.939453125 168.556640625 593.745117188 180.34375 592.01171875 c 5
 187.796875 595.322265625 205.130859375 586.828125 202.53125 591.14453125 c 4
 202.184570312 603.440429688 209.290039062 615.571289062 211.890625 627.80859375 c 5
 212.341796875 627.91015625 l 6
 213.901367188 629.41796875 215.114257812 630.856445312 216.84765625 632.416015625 c 5
 203.344726562 627.770507812 188.473632812 631.202148438 174.43359375 630.162109375 c 4
 167.5 633.391601562 147.913085938 621.02734375 159.873046875 633.369140625 c 5
 167.759765625 650.404296875 171.2265625 669.580078125 177.466796875 687.435546875 c 4
 176.762695312 691.829101562 185.899414062 706.338867188 184.05078125 705.62890625 c 4x40
EndSplineSet
EndChar

StartChar: u
Encoding: 117 117 53
Width: 283
GlyphClass: 1
Flags: HMW
HStem: 631.027 4.33398
LayerCount: 2
Fore
SplineSet
252.577148438 636.068359375 m 0
 251.022460938 636.166992188 250.71875 634.9921875 252.614257812 631.02734375 c 0
 229.942382812 557.10546875 207.268554688 483.18359375 184.596679688 409.26171875 c 0
 170.57421875 363.59375 149.358398438 311.14453125 101.622070312 292.365234375 c 0
 76.419921875 280.715820312 38.9619140625 300.381835938 47.2822265625 330.94921875 c 0
 74.2880859375 420.676757812 102.663085938 510.012695312 130.206054688 599.58984375 c 0
 135.232421875 611.274414062 135.05859375 626.278320312 144.418945312 635.361328125 c 1
 133.5859375 630.975585938 121.609375 633.973632812 110.168945312 633.107421875 c 1
 102.369140625 627.924804688 85.5556640625 643.5078125 93.0087890625 631.02734375 c 1
 68.03125 550.3046875 43.0703125 469.58203125 18.0927734375 388.859375 c 0
 9.42578125 354.884765625 -11.1298828125 317.880859375 7.6943359375 283.671875 c 0
 30.1064453125 247.006835938 83.8388671875 248.283203125 116.893554688 268.921875 c 0
 136.809570312 278.890625 149.723632812 296.767578125 160.643554688 315.392578125 c 1
 157.350585938 306.176757812 153.881835938 296.965820312 150.588867188 287.744140625 c 1
 152.322265625 276.515625 129.720703125 246.838867188 148.856445312 255.591796875 c 1
 161.943359375 254.551757812 176.278320312 257.48046875 188.584960938 254.03125 c 1
 192.051757812 259.255859375 193.436523438 293.232421875 199.676757812 306.908203125 c 0
 231.657226562 415.251953125 266.012695312 522.896484375 298.946289062 630.9609375 c 1
 299.760742188 631.02734375 l 2
 301.147460938 632.465820312 302.1875 633.974609375 303.920898438 635.361328125 c 1
 293.573242188 630.836914062 281.803710938 634.147460938 270.883789062 633.107421875 c 0
 265.473632812 629.47265625 255.999023438 635.850585938 252.577148438 636.068359375 c 0
EndSplineSet
EndChar

StartChar: w
Encoding: 119 119 55
Width: 393
GlyphClass: 1
Flags: W
LayerCount: 2
Fore
SplineSet
219.395507812 631.90234375 m 1
 219.395507812 644.911132812 l 1
 223.166992188 642.431640625 l 1
 223.166992188 642.432617188 l 1
 223.236328125 642.388671875 l 1
 223.232421875 642.387695312 l 1
 232.4296875 636.33984375 l 1
 267.94921875 636.33984375 l 1
 286.282226562 642.46875 l 1
 276.28515625 629.952148438 l 1
 253.413085938 397.859375 l 2
 252.6875 383.763671875 253.252929688 369.516601562 251.24609375 355.561523438 c 0
 247.009765625 326.1171875 247.009765625 326.1171875 247.009765625 326.1171875 c 1
 247.009765625 326.1171875 263.390625 358.086914062 263.494140625 358.254882812 c 0
 288.634765625 399.030273438 288.634765625 399.030273438 288.634765625 399.030273438 c 2
 288.684570312 399.115234375 413.557617188 621.354492188 420.91796875 634.452148438 c 1
 419.30078125 642.864257812 l 1
 428.463867188 639.197265625 l 1
 459.102539062 639.23046875 l 1
 476 644.106445312 l 1
 464.80859375 631.90234375 l 1
 254.489257812 265.926757812 l 1
 257.818359375 253.615234375 l 1
 247.619140625 261.434570312 l 1
 203.452148438 261.434570312 l 1
 188.290039062 256.265625 l 1
 198.294921875 268.616210938 l 1
 225.154296875 507.709960938 l 1
 225.154296875 507.709960938 225.147460938 542.291015625 225.161132812 542.477539062 c 2
 227.137695312 569.23828125 l 1
 227.137695312 569.23828125 211.041015625 539.400390625 210.95703125 539.267578125 c 0
 190.416015625 506.341796875 190.416015625 506.341796875 190.416015625 506.341796875 c 1
 58.8095703125 265.086914062 l 1
 58.8095703125 252.518554688 l 1
 48.7841796875 260.138671875 l 1
 11.255859375 260.298828125 l 1
 -9.1552734375 249.963867188 l 1
 4.44921875 266.766601562 l 1
 33.7978515625 632.41015625 l 1
 31.671875 645.530273438 l 1
 40.8974609375 638.2109375 l 1
 75.5966796875 637.817382812 l 1
 92.994140625 642.833984375 l 1
 80.6796875 630.186523438 l 1
 69.962890625 520.5390625 61.7763671875 411.453125 61.7763671875 411.453125 c 2
 61.7734375 411.453125 57.654296875 364.896484375 57.6328125 364.75390625 c 0
 51.9384765625 326.05859375 51.9384765625 326.05859375 51.9384765625 326.05859375 c 1
 51.9384765625 326.05859375 72.978515625 366.668945312 73.0380859375 366.771484375 c 0
 98.810546875 411.171875 98.810546875 411.171875 98.810546875 411.171875 c 2
 98.8408203125 411.2265625 212.729492188 619.700195312 219.395507812 631.90234375 c 1
EndSplineSet
Validated: 524321
EndChar

StartChar: x
Encoding: 120 120 56
Width: 182
GlyphClass: 1
Flags: W
LayerCount: 2
Fore
SplineSet
129.408203125 447.485351562 m 1
 130.611328125 440.521484375 131.602539062 434.333007812 161.904296875 249.958984375 c 1
 157.103515625 249.998046875 l 1
 157.103515625 249.998046875 146.401367188 250.087890625 136.213867188 250.087890625 c 0
 128.040039062 250.087890625 125.393554688 250.055664062 118.639648438 249.928710938 c 1
 115.938476562 290.396484375 110.02734375 323.526367188 102.146484375 367.6953125 c 0
 99.6162109375 381.87890625 97.0986328125 395.989257812 94.8271484375 409.885742188 c 1
 -17.11328125 250.061523438 l 1
 -23.5986328125 249.858398438 -28.4658203125 249.858398438 -34.7763671875 249.858398438 c 0
 -46.0302734375 249.858398438 -55.8466796875 249.938476562 -70.1123046875 250.07421875 c 1
 -28.1865234375 304.827148438 1.3134765625 344.494140625 44.896484375 403.09765625 c 0
 58.8291015625 423.577148438 72.4208984375 444.090820312 86.01171875 464.505859375 c 0
 85.6611328125 465.833007812 84.9296875 467.4765625 84.3916015625 470.501953125 c 0
 75.3876953125 525.223632812 55.7158203125 634.399414062 55.7158203125 634.399414062 c 1
 55.7158203125 635.681640625 54.8583984375 649.11328125 54.8583984375 642.391601562 c 1
 54.8583984375 646.391601562 98.2001953125 646.49609375 98.2001953125 642.49609375 c 1
 100.483398438 619.026367188 102.264648438 602.833007812 113.317382812 537.774414062 c 0
 115.654296875 524.9375 117.98828125 512.122070312 120.14453125 499.39453125 c 1
 122.315429688 502.92578125 122.315429688 502.92578125 217.548828125 642.599609375 c 1
 232.923828125 642.580078125 248.28125 642.544921875 263.649414062 642.51953125 c 2
 263.649414062 646.51953125 271.59375 646.505859375 271.59375 642.505859375 c 1
 271.59375 646.5390625 129.408203125 449.892578125 129.408203125 447.485351562 c 1
EndSplineSet
Validated: 524325
EndChar

StartChar: braceleft
Encoding: 123 123 59
Width: 494
GlyphClass: 1
Flags: MW
HStem: 139.092 39.6934 889.391 5.0918
LayerCount: 2
Fore
SplineSet
500.901367188 895.998046875 m 0
 500.405273438 896.029296875 499.083984375 895.600585938 496.440429688 894.482421875 c 0
 462.328125 891.744140625 427.4375 896.233398438 393.325195312 891.05078125 c 0
 361.830078125 888.6796875 335.223632812 866.241210938 325.516601562 836.486328125 c 0
 303.139648438 773.713867188 285.615234375 709.302734375 265.508789062 645.763671875 c 0
 255.108398438 616.954101562 251.8671875 581.717773438 225.659179688 562.333984375 c 0
 202.831054688 549.823242188 176.120117188 544.466796875 150.415039062 542.091796875 c 0
 143.5859375 541.767578125 174.958007812 523.505859375 178.424804688 513.677734375 c 1
 196.98828125 496.25390625 210.68359375 470.573242188 202.190429688 444.72265625 c 0
 184.735351562 379.587890625 163.224609375 315.58984375 143.915039062 250.978515625 c 0
 134.208007812 221.428710938 120.498046875 184.060546875 143.915039062 157.939453125 c 1
 172.514648438 133.752929688 212.293945312 140.131835938 247.151367188 139.091796875 c 1
 255.297851562 143.598632812 271.24609375 128.361328125 263.272460938 142.73046875 c 1
 268.645507812 155.482421875 269.51171875 170.724609375 278.872070312 181.384765625 c 1
 264.624023438 176.1328125 248.918945312 179.998046875 234.012695312 178.78515625 c 0
 216.575195312 180.795898438 185.32421875 171.958984375 180.991210938 195.373046875 c 1
 185.064453125 227.616210938 198.25390625 257.96484375 206.920898438 289.236328125 c 0
 222.434570312 342.186523438 241.952148438 394.112304688 253.045898438 448.2265625 c 0
 257.483398438 473.987304688 250.341796875 507.220703125 224.446289062 518.6953125 c 1
 256.825195312 515.076171875 283.153320312 543.241210938 292.686523438 571.9296875 c 0
 315.72265625 639.12109375 335.083984375 707.544921875 356.420898438 775.302734375 c 0
 366.421875 800.954101562 370.149414062 833.502929688 394.502929688 850.056640625 c 1
 416.325195312 856.57421875 439.759765625 852.361328125 462.344726562 853.57421875 c 0
 469.884765625 857.352539062 487.565429688 846.987304688 484.791992188 854.09375 c 0
 484.791992188 866.01171875 491.899414062 877.603515625 494.672851562 889.390625 c 1
 496.440429688 889.45703125 l 2
 496.440429688 891.666992188 502.388671875 895.903320312 500.901367188 895.998046875 c 0
EndSplineSet
Validated: 524329
EndChar

StartChar: bar
Encoding: 124 124 60
Width: 220
GlyphClass: 1
Flags: MW
VStem: 134.08 44.3223<310.914 836.875 277.746 865.865 310.914 310.914>
LayerCount: 2
Fore
SplineSet
180.482421875 890.65234375 m 1
 172.838867188 882.176757812 160.426757812 880.928710938 150.546875 875.728515625 c 1
 145.520507812 868.517578125 125.586914062 875.43359375 134.080078125 865.865234375 c 1
 134.080078125 310.9140625 l 2
 132.173828125 292.004882812 136.333984375 272.479492188 132.173828125 254 c 1
 144.35546875 264.639648438 161.629882812 267.102539062 176.013671875 274.2734375 c 0
 182.387695312 273.236328125 184.108398438 272.248046875 178.40234375 277.74609375 c 1
 178.40234375 836.875 l 2
 178.749023438 854.731445312 175.975585938 873.303710938 180.482421875 890.65234375 c 1
EndSplineSet
Validated: 524329
EndChar

StartChar: braceright
Encoding: 125 125 61
Width: 491
GlyphClass: 1
Flags: MW
HStem: 138.562 40.6074 853.945 39.8652
LayerCount: 2
Fore
SplineSet
322.392578125 895.955078125 m 0
 320.153320312 896.2578125 319.4453125 895.137695312 321.78515625 890.171875 c 1
 316.412109375 877.419921875 315.719726562 862.00390625 306.185546875 851.517578125 c 1
 320.641601562 856.405273438 336.310546875 852.905273438 351.390625 853.9453125 c 0
 368.915039062 851.831054688 400.774414062 861.04296875 404.93359375 837.443359375 c 1
 401.155273438 809.881835938 389.645507812 783.946289062 382.365234375 757.13671875 c 0
 365.53515625 699.734375 344.197265625 643.46875 332.583984375 584.6953125 c 0
 328.008789062 558.922851562 334.786132812 525.537109375 360.958984375 514.21875 c 1
 328.805664062 517.486328125 303.377929688 488.998046875 293.32421875 460.90625 c 0
 271.311523438 401.532226562 254.94921875 340.23046875 235.708984375 279.912109375 c 0
 224.66796875 248.66015625 220.334960938 213.458984375 198.6328125 187.455078125 c 1
 180.467773438 173.935546875 156.512695312 180.920898438 135.41796875 179.169921875 c 0
 123.493164062 180.81640625 109.279296875 175.217773438 99.3984375 183.330078125 c 1
 104.42578125 174.521484375 97.8388671875 165.729492188 95.931640625 156.923828125 c 0
 97.8388671875 150.177734375 81.19921875 133.96875 91.251953125 138.5625 c 0
 124.844726562 141.387695312 159.250976562 136.8984375 192.876953125 141.908203125 c 0
 224.389648438 144.196289062 251.70703125 166.282226562 261.06640625 196.326171875 c 0
 282.404296875 260.485351562 301.349609375 325.467773438 321.6640625 389.984375 c 0
 332.48046875 419.603515625 335.6171875 458.133789062 366.556640625 474.236328125 c 0
 390.19921875 483.666015625 415.801757812 491.110351562 441.4375 490.998046875 c 1
 421.435546875 501.1171875 407.845703125 520.6796875 393.28515625 537.25 c 0
 372.3125 563.052734375 387.565429688 596.900390625 395.19140625 624.638671875 c 1
 395.052734375 624.625 l 1
 410.982421875 676.559570312 426.913085938 728.491210938 442.859375 780.42578125 c 0
 451.353515625 810.514648438 464.6640625 848.423828125 441.125 874.962890625 c 1
 413.028320312 898.994140625 373.733398438 892.770507812 339.361328125 893.810546875 c 0
 334.118164062 890.994140625 326.125976562 895.450195312 322.392578125 895.955078125 c 0
EndSplineSet
Validated: 524329
EndChar

StartChar: asciitilde
Encoding: 126 126 62
Width: 709
GlyphClass: 1
Flags: W
LayerCount: 2
Fore
SplineSet
328.041015625 700.115234375 m 0
 315.287109375 700.120117188 302.513671875 696.939453125 291.119140625 690.255859375 c 0
 259.607421875 671.78515625 237.627929688 641.674804688 211.4375 616.806640625 c 0
 201.141601562 608.465820312 194.51953125 594.171875 181 591 c 1
 192.717773438 589.006835938 198.783203125 577.126953125 207.796875 570.349609375 c 1
 215.943359375 569.327148438 219.237304688 546.1171875 220.970703125 560.19140625 c 1
 236.934570312 579.083007812 255.689453125 596.2890625 272.849609375 614.5390625 c 0
 290.703125 632.014648438 309.5625 658.588867188 337.763671875 652.81640625 c 1
 372.655273438 630.35546875 395.62109375 593.728515625 428.51953125 568.619140625 c 0
 457.899414062 542.407226562 503.90234375 548.96484375 532 573.611328125 c 0
 561.362304688 600.470703125 587.8125 630.404296875 615.91015625 658.587890625 c 1
 615.927734375 658.59375 l 2
 618.0078125 659.287109375 620.26171875 660.154296875 622.341796875 660.84765625 c 1
 611.126953125 663.938476562 604.712890625 674.921875 595.69921875 681.6640625 c 1
 587.206054688 682.478515625 584.260742188 705.704101562 582.52734375 691.646484375 c 1
 566.51171875 672.69921875 547.634765625 655.432617188 530.474609375 637.125 c 0
 512.569335938 619.848632812 494.213867188 592.739257812 465.9609375 598.875 c 1
 435.176757812 619.55078125 412.26171875 649.885742188 385.169921875 674.984375 c 0
 370.501953125 691.245117188 349.297851562 700.106445312 328.041015625 700.115234375 c 0
EndSplineSet
Validated: 524329
EndChar

StartChar: exclam
Encoding: 33 33 63
Width: 148
GlyphClass: 1
Flags: MW
HStem: 253.932 61.5547
LayerCount: 2
Fore
SplineSet
269.91015625 806.1640625 m 1
 253.876953125 801.46875 237.098632812 804.603515625 220.71875 804.015625 c 1
 212.641601562 799.538085938 197.110351562 812.45703125 198.96484375 796.021484375 c 1
 164.28125 671.803710938 130.012695312 547.463867188 95.12109375 423.3125 c 0
 90.388671875 408.9453125 88.5 393.658203125 82.3984375 379.765625 c 1
 86.7841796875 371.447265625 100.825195312 380.990234375 108.642578125 378.033203125 c 0
 114.587890625 375.017578125 122.612304688 373.015625 121.728515625 382.4296875 c 0
 169.447265625 521.743164062 217.096679688 661.129882812 264.884765625 800.392578125 c 0
 266.96484375 801.942382812 268.24609375 804.231445312 269.91015625 806.1640625 c 1
116.251953125 318.48828125 m 1
 104.309570312 314.571289062 91.1875 316.141601562 78.724609375 315.904296875 c 0
 69.486328125 314.306640625 57.681640625 319.12109375 50.505859375 315.486328125 c 1
 50.88671875 305.07421875 45.2529296875 296.65625 42.861328125 286.80078125 c 0
 39.689453125 275.482421875 36.93359375 263.657226562 30 253.931640625 c 1
 44.525390625 258.895507812 59.986328125 254.513671875 74.771484375 256.873046875 c 0
 83.6982421875 257.403320312 98.5185546875 250.330078125 97.478515625 264.74609375 c 1
 101.534179688 280.869140625 107.134765625 296.545898438 111.537109375 312.572265625 c 1
 113.73828125 311.8359375 114.397460938 318.228515625 116.251953125 318.48828125 c 1
EndSplineSet
Validated: 524325
EndChar

StartChar: question
Encoding: 63 63 64
Width: 300
GlyphClass: 1
Flags: MW
HStem: 256.363 65.6504 319.414 4.54102
LayerCount: 2
Fore
SplineSet
285.280273438 892.51171875 m 0x00
 273.18359375 892.313476562 261.166992188 890.606445312 249.973632812 887.646484375 c 0
 200.66015625 876.328125 170.760742188 829.65625 156.374023438 784.38671875 c 0
 145.904296875 762.865234375 147.811523438 735.0859375 134.118164062 716.080078125 c 1
 150.7578125 721.245117188 168.767578125 717.29296875 186.100585938 718.505859375 c 1
 202.220703125 708.208007812 190.780273438 724.017578125 197.713867188 736.6015625 c 0
 208.720703125 777.435546875 223.885742188 828.095703125 268.172851562 843.453125 c 0
 293.583007812 852.03515625 330.50390625 842.16015625 332.756835938 811.03125 c 0
 337.08984375 746.974609375 303.290039062 687.455078125 265.434570312 638.306640625 c 0
 235.014648438 598.501953125 198.408203125 563.52734375 170.241210938 522.08203125 c 1
 157.171875 492.6640625 149.856445312 460.96484375 139.629882812 430.470703125 c 0
 134.256835938 418.625 134.602539062 403.333984375 124.895507812 394.19921875 c 1
 135.625 399.122070312 147.70703125 395.932617188 159.147460938 396.798828125 c 1
 167.537109375 402.155273438 183.830078125 386.918945312 178.629882812 397.4921875 c 1
 184.48828125 422.579101562 194.021484375 447.521484375 201.301757812 472.552734375 c 0
 210.228515625 510.202148438 241.756835938 534.9609375 264.602539062 564.20703125 c 1
 264.637695312 564.23828125 l 1
 300.430664062 603.323242188 337.680664062 644.211914062 362.051757812 692.125 c 0
 383.025390625 739.392578125 401.345703125 797.2109375 376.264648438 846.5 c 0
 358.584960938 880.102539062 321.5703125 893.10546875 285.280273438 892.51171875 c 0x00
102.102539062 325.630859375 m 0
 101.284179688 325.399414062 101.306640625 324.125 102.606445312 320.974609375 c 0
 99.8330078125 305.646484375 93.5927734375 290.442382812 89.6064453125 275.171875 c 0
 90.47265625 268.669921875 78.51171875 253.069335938 83.0185546875 254.802734375 c 0
 99.15625 258.390625 116.333984375 255.323242188 132.973632812 256.36328125 c 1x80
 140.323242188 261.389648438 156.096679688 247.071289062 150.549804688 258.650390625 c 1
 155.229492188 279 163.375976562 299.177734375 169.442382812 319.4609375 c 1
 169.928710938 319.4140625 l 2
 170.448242188 320.349609375 177.90234375 326.728515625 172.875976562 323.955078125 c 0x40
 155.94140625 319.69140625 137.774414062 323.053710938 120.336914062 322.013671875 c 1x80
 114.578125 317.6328125 104.55859375 326.326171875 102.102539062 325.630859375 c 0
EndSplineSet
Validated: 524329
EndChar

StartChar: less
Encoding: 60 60 65
Width: 515
GlyphClass: 1
Flags: MW
HStem: 687.094 20G<520.893 520.893>
LayerCount: 2
Fore
SplineSet
561.97265625 797.400390625 m 1
 550.359375 786.826171875 l 1
 57.400390625 517.8125 l 1
 47 516.599609375 l 1
 57.400390625 512.958984375 l 1
 335.599609375 264.400390625 l 1
 340.626953125 254 l 1
 340.626953125 264.400390625 l 1
 361.251953125 310.505859375 l 1
 367.666015625 314.4921875 l 1
 359.693359375 315.87890625 l 1
 153.9453125 498.74609375 l 1
 139.732421875 503.7734375 l 1
 153.9453125 506.546875 l 1
 520.892578125 707.09375 l 1
 528.693359375 704.666015625 l 1
 524.70703125 712.29296875 l 1
 554.51953125 784.400390625 l 1
 561.97265625 797.400390625 l 1
EndSplineSet
Validated: 524297
EndChar

StartChar: greater
Encoding: 62 62 66
Width: 514
GlyphClass: 1
Flags: W
LayerCount: 2
Fore
SplineSet
268.8671875 797.052734375 m 1
 267.134765625 786.826171875 l 1
 247.89453125 740.546875 l 1
 240.09375 736.560546875 l 1
 247.89453125 735.34765625 l 1
 453.814453125 552.48046875 l 1
 467.853515625 547.453125 l 1
 453.814453125 544.6796875 l 1
 86.8671875 343.9609375 l 1
 80.455078125 346.38671875 l 1
 83.2265625 338.759765625 l 1
 53.587890625 266.654296875 l 1
 47 254 l 1
 57.400390625 264.2265625 l 1
 550.533203125 533.4140625 l 1
 550.880859375 533.4140625 l 1
 561.107421875 534.453125 l 1
 552.09375 538.267578125 l 1
 272.681640625 786.826171875 l 1
 268.8671875 797.052734375 l 1
EndSplineSet
Validated: 524297
EndChar

StartChar: period
Encoding: 46 46 67
Width: 185
GlyphClass: 1
Flags: MW
HStem: 256.443 103.031
VStem: -8.86426 125.691
LayerCount: 2
Fore
SplineSet
116.827148438 362.228515625 m 0
 116.196289062 362.217773438 114.767578125 361.724609375 112.124023438 360.515625 c 0
 88.291015625 358.088867188 63.7802734375 360.16796875 39.7041015625 359.474609375 c 1
 32.3720703125 354.534179688 15.0380859375 369.3203125 20.5849609375 357.013671875 c 1
 13.8251953125 329.2578125 3.6162109375 301.65625 -4.5302734375 273.958984375 c 0
 -2.4501953125 267.467773438 -18.5712890625 251.069335938 -8.8642578125 255.576171875 c 0
 15.5751953125 257.65625 40.640625 255.75 65.3232421875 256.443359375 c 1
 73.296875 260.950195312 88.896484375 246.04296875 82.3095703125 260.4296875 c 1
 92.189453125 292.092773438 102.0703125 323.754882812 111.950195312 355.41796875 c 1
 112.124023438 355.556640625 l 2
 113.423828125 357.948242188 118.719726562 362.26171875 116.827148438 362.228515625 c 0
EndSplineSet
Validated: 524329
EndChar

StartChar: comma
Encoding: 44 44 68
Width: 162
GlyphClass: 1
Flags: W
LayerCount: 2
Fore
SplineSet
6.294921875 323.41015625 m 0
 5.0234375 323.159179688 5.1279296875 321.55859375 7.619140625 317.16015625 c 0
 -4.4970703125 277.538085938 -16.6123046875 237.916992188 -28.74609375 198.29296875 c 0
 -34.119140625 185.713867188 -33.7734375 169.723632812 -44 159.947265625 c 1
 -30.9130859375 165.095703125 -16.318359375 161.506835938 -2.625 162.546875 c 1
 6.4404296875 168.111328125 18.57421875 150.083984375 15.28125 165.3203125 c 1
 96.400390625 317.16015625 l 1
 96.349609375 317.853515625 l 1
 100.163085938 320.799804688 105.881835938 325.395507812 98.08203125 321.841796875 c 0
 73.6591796875 319.76171875 48.5947265625 321.66796875 23.912109375 320.974609375 c 0
 18.5498046875 317.995117188 9.091796875 323.962890625 6.294921875 323.41015625 c 0
EndSplineSet
Validated: 524329
EndChar

StartChar: quotedbl
Encoding: 34 34 69
Width: 411
GlyphClass: 1
Flags: W
LayerCount: 2
Fore
SplineSet
255.427734375 896 m 1
 239.7578125 891.233398438 222.73828125 894.958984375 206.4453125 893.74609375 c 0
 198.921875 889.239257812 182.28125 902.690429688 188.521484375 890.279296875 c 1
 167.33984375 819.87109375 146.174804688 749.46484375 124.994140625 679.05859375 c 0
 118.615234375 661.1171875 115.668945312 641.541015625 107.17578125 624.658203125 c 0
 104.991210938 621.249023438 123.799804688 626.674804688 130.38671875 624.560546875 c 1
 137.909179688 629.067382812 154.721679688 615.546875 148.482421875 628.02734375 c 1
 182.577148438 715.444335938 216.653320312 802.862304688 250.748046875 890.279296875 c 0
 252.307617188 892.185546875 253.694335938 894.09375 255.427734375 896 c 1
398.08203125 896 m 1
 382.568359375 891.198242188 365.736328125 894.958984375 349.6171875 893.74609375 c 0
 341.920898438 889.413085938 324.4140625 902.568359375 330.828125 890.279296875 c 1
 309.78515625 821.34765625 288.725585938 752.419921875 267.68359375 683.48828125 c 0
 260.87109375 664.068359375 257.056640625 643.170898438 248.390625 624.693359375 c 0
 246.275390625 621.21484375 264.892578125 626.709960938 271.306640625 624.560546875 c 1
 279.348632812 629.067382812 294.775390625 615.73828125 291.482421875 628.02734375 c 1
 325.282226562 715.444335938 359.080078125 802.862304688 392.880859375 890.279296875 c 0
 392.1875 890.955078125 396.348632812 894.61328125 398.08203125 896 c 1
EndSplineSet
Validated: 524329
EndChar

StartChar: quotesingle
Encoding: 39 39 70
Width: 269
GlyphClass: 1
Flags: MW
HStem: 890.279 5.7207
LayerCount: 2
Fore
SplineSet
255.59375 896 m 1
 239.994140625 891.215820312 222.903320312 894.958984375 206.783203125 893.74609375 c 0
 199.260742188 889.239257812 182.4453125 902.759765625 188.685546875 890.279296875 c 1
 167.053710938 818.370117188 145.440429688 746.463867188 123.80859375 674.5546875 c 0
 117.915039062 658.114257812 115.314453125 639.913085938 107.16796875 624.625 c 0
 105.018554688 621.319335938 124.084960938 626.623046875 130.671875 624.560546875 c 1
 138.194335938 629.067382812 154.833984375 615.616210938 148.59375 628.02734375 c 1
 182.791992188 715.444335938 217.008789062 802.862304688 251.20703125 890.279296875 c 1
 251.259765625 890.279296875 l 2
 252.646484375 892.185546875 253.860351562 894.09375 255.59375 896 c 1
EndSplineSet
Validated: 524329
EndChar

StartChar: colon
Encoding: 58 58 71
Width: 231
GlyphClass: 1
Flags: MW
HStem: 404.586 102.982 623.334 103.092
LayerCount: 2
Fore
SplineSet
228.208984375 728.990234375 m 0
 227.60546875 729.078125 226.174804688 728.62109375 223.53125 727.291015625 c 0
 199.888671875 725.2109375 175.657226562 726.9453125 151.7890625 726.42578125 c 1
 143.919921875 722.075195312 128.494140625 734.345703125 130.919921875 723.998046875 c 1
 123.518554688 696.114257812 114.073242188 668.529296875 105.92578125 640.759765625 c 0
 108.005859375 634.096679688 91.5400390625 617.578125 101.24609375 622.29296875 c 0
 125.651367188 624.719726562 150.749023438 622.640625 175.4140625 623.333984375 c 1
 183.041015625 627.666992188 199.508789062 613.3671875 191.53515625 627.3203125 c 1
 222.21484375 722.48046875 l 1
 221.798828125 722.404296875 l 1
 224.399414062 723.561523438 230.021484375 728.725585938 228.208984375 728.990234375 c 0
160.48046875 510.322265625 m 0
 159.849609375 510.311523438 158.418945312 509.81640625 155.775390625 508.607421875 c 0
 131.890625 506.180664062 107.329101562 508.26171875 83.18359375 507.568359375 c 1
 75.314453125 502.524414062 60.0615234375 517.447265625 62.833984375 505.140625 c 1
 55.3115234375 476.703125 45.84765625 448.560546875 37.52734375 420.23828125 c 1
 39.78125 413.044921875 21.75390625 397.32421875 34.75390625 404.06640625 c 1
 58.2587890625 405.279296875 82.1787109375 404.239257812 105.837890625 404.5859375 c 1
 114.0546875 409.092773438 131.041015625 394.499023438 124.80078125 408.2265625 c 1
 134.62890625 440.00390625 144.387695312 471.783203125 154.267578125 503.560546875 c 1
 155.775390625 503.650390625 l 2
 157.076171875 506.041992188 162.374023438 510.35546875 160.48046875 510.322265625 c 0
EndSplineSet
Validated: 524329
EndChar

StartChar: semicolon
Encoding: 59 59 72
Width: 228
GlyphClass: 1
Flags: MW
HStem: 623.4 103.119
LayerCount: 2
Fore
SplineSet
210.982421875 728.9921875 m 0
 210.580078125 729.067382812 209.256835938 728.630859375 206.396484375 727.38671875 c 0
 182.99609375 725.306640625 158.990234375 727.212890625 135.365234375 726.51953125 c 0
 127.65234375 722.307617188 109.452148438 734.458984375 114.478515625 724.05859375 c 1
 107.631835938 695.758789062 97.21484375 667.595703125 89.068359375 639.34765625 c 0
 90.974609375 632.60546875 73.8154296875 616.36328125 86.46875 622.880859375 c 1
 110.52734375 624.09375 134.94921875 623.053710938 159.146484375 623.400390625 c 1
 166.7734375 627.733398438 183.759765625 613.3984375 175.439453125 627.38671875 c 1
 185.787109375 659.106445312 196.06640625 690.827148438 206.466796875 722.546875 c 1
 206.51953125 722.462890625 l 1
 205.12890625 723.931640625 212.190429688 728.766601562 210.982421875 728.9921875 c 0
141.525390625 510.171875 m 0
 141.032226562 510.172851562 139.646484375 509.689453125 136.873046875 508.48046875 c 0
 112.571289062 506.400390625 87.6123046875 508.306640625 63.05078125 507.61328125 c 1
 54.904296875 503.280273438 38.6103515625 518.134765625 46.583984375 503.626953125 c 1
 34.3642578125 463.506835938 22.212890625 423.389648438 9.90625 383.26953125 c 0
 4.7060546875 371.31640625 5.400390625 355.547851562 -5 346.759765625 c 1
 7.8095703125 351.474609375 21.7978515625 348.321289062 35.14453125 349.1875 c 1
 44.2275390625 354.595703125 57.7470703125 337.9375 54.626953125 351.787109375 c 1
 81.615234375 402.400390625 108.5859375 453.013671875 135.57421875 503.626953125 c 1
 135.140625 503.541015625 l 1
 136.440429688 505.802734375 143.00390625 510.169921875 141.525390625 510.171875 c 0
EndSplineSet
Validated: 524325
EndChar

StartChar: equal
Encoding: 61 61 73
Width: 489
GlyphClass: 1
Flags: W
LayerCount: 2
Fore
SplineSet
58.78515625 591 m 1
 60.51953125 584.240234375 l 1
 51.6796875 546.97265625 l 1
 47 541.427734375 l 1
 53.93359375 543.6796875 l 1
 519.16015625 543.6796875 l 1
 525.052734375 540.38671875 l 1
 522.798828125 546.97265625 l 1
 532.853515625 584.240234375 l 1
 532.16015625 584.240234375 l 1
 536.146484375 588.74609375 l 1
 529.732421875 586.494140625 l 1
 64.505859375 586.494140625 l 1
 58.78515625 591 l 1
58.78515625 452.333984375 m 1
 60.51953125 445.57421875 l 1
 51.6796875 408.48046875 l 1
 47 404.146484375 l 1
 53.93359375 406.052734375 l 1
 519.16015625 406.052734375 l 1
 525.052734375 401.720703125 l 1
 522.798828125 408.48046875 l 1
 532.853515625 445.57421875 l 1
 532.16015625 445.57421875 l 1
 536.146484375 451.12109375 l 1
 529.732421875 449.212890625 l 1
 64.505859375 449.212890625 l 1
 58.78515625 452.333984375 l 1
EndSplineSet
Validated: 524297
EndChar

StartChar: asterisk
Encoding: 42 42 74
Width: 534
GlyphClass: 1
Flags: MW
HStem: 571.334 52.0391
LayerCount: 2
Fore
SplineSet
279.484375 821.26953125 m 1
 272.55078125 811.615234375 260.018554688 808.35546875 250.658203125 801.578125 c 0
 247.19140625 795.684570312 226.21875 793.899414062 234.5390625 789.982421875 c 1
 267.090820312 740.651367188 297.475585938 689.436523438 328.103515625 638.724609375 c 1
 325.157226562 628.001953125 360.170898438 610.913085938 339.890625 616.650390625 c 1
 291.755859375 619.267578125 243.22265625 619.110351562 194.94921875 621.224609375 c 0
 174.444335938 623.42578125 152.7421875 619.30078125 133 625.419921875 c 1
 139.759765625 615.34375 134.733398438 602.422851562 136.466796875 591 c 0
 140.626953125 583.938476562 128.493164062 565.079101562 138.546875 570.833984375 c 1
 199.317382812 573.502929688 260.416992188 575.25390625 321.326171875 576.466796875 c 1
 327.618164062 572.411132812 359.807617188 585.133789062 341.3125 573.27734375 c 1
 313.544921875 534.735351562 290.248046875 492.478515625 264.62890625 452.21875 c 0
 252.668945312 435.885742188 245.59765625 415.249023438 230.69140625 401.46875 c 1
 242.322265625 401.087890625 251.143554688 390.704101562 261.716796875 386.1796875 c 0
 268.303710938 386.127929688 281.129882812 368.205078125 279.396484375 378.05078125 c 1
 308.083007812 435.072265625 339.61328125 491.5078125 369.7734375 548.083984375 c 0
 374.453125 556.38671875 373.93359375 574.879882812 376.533203125 555.173828125 c 1
 398.165039062 512.608398438 423.333984375 471.192382812 445.3125 428.501953125 c 0
 452.765625 409.823242188 468.799804688 393.227539062 471.052734375 373.2109375 c 1
 478.454101562 383.104492188 491.487304688 386.537109375 501.3671875 393.57421875 c 0
 504.66015625 400.1953125 525.982421875 400.090820312 517.662109375 404.4765625 c 1
 482.8046875 455.991210938 451.206054688 510.014648438 419.3125 563.533203125 c 1
 418.965820312 573.048828125 391.924804688 582.252929688 412.724609375 577.365234375 c 1
 478.8515625 575.267578125 545.255859375 573.517578125 611.486328125 571.333984375 c 2
 612.283203125 571.318359375 l 2
 614.536132812 570.452148438 616.618164062 569.756835938 618.87109375 568.890625 c 1
 611.244140625 578.575195312 616.618164062 591.872070312 614.884765625 603.3125 c 0
 609.858398438 610.252929688 622.336914062 629.1796875 613.150390625 623.373046875 c 1
 547.700195312 620.6171875 481.815429688 618.46875 416.173828125 617.775390625 c 0
 403.693359375 614.672851562 398.147460938 614.341796875 412.1875 621.951171875 c 1
 438.811523438 660.685546875 461.935546875 702.330078125 487.2421875 742.177734375 c 0
 499.306640625 758.493164062 506.5859375 779.258789062 521.666015625 792.84765625 c 1
 509.151367188 792.275390625 499.84375 803.5078125 488.75 808.1875 c 0
 482.146484375 808.118164062 469.491210938 826.215820312 471.224609375 816.439453125 c 1
 442.46875 757.525390625 408.721679688 700.10546875 378.3359375 641.87890625 c 1
 376.4296875 626.903320312 375.389648438 627.14453125 373.65625 642.05078125 c 1
 350.758789062 683.126953125 327.80859375 724.69140625 305.673828125 766.388671875 c 0
 298.23828125 785.022460938 281.737304688 801.344726562 279.484375 821.26953125 c 1
EndSplineSet
Validated: 524329
EndChar

StartChar: plus
Encoding: 43 43 75
Width: 619
GlyphClass: 1
Flags: MW
HStem: 508.973 48.8223<114.278 321.497 321.497 321.497>
VStem: 331.03 49.1406<308.645 497.33 277.227 503.6 308.645 308.645>
LayerCount: 2
Fore
SplineSet
381.540039062 813.98828125 m 1
 373.081054688 803.587890625 357.567382812 804.00390625 345.954101562 798.4921875 c 1
 339.88671875 790.797851562 320.6484375 802.010742188 329.834960938 790.76171875 c 1
 329.834960938 569.09765625 l 2
 328.967773438 559.009765625 341.448242188 549.6484375 324.981445312 557.794921875 c 1
 114.278320312 557.794921875 l 1
 106.58203125 553.270507812 90.1142578125 565.422851562 93.0615234375 558.31640625 c 0
 93.234375 546.541992188 86.6484375 534.989257812 84.2216796875 523.306640625 c 0
 86.1279296875 515.663085938 69.314453125 501.432617188 84.2216796875 508.97265625 c 1
 321.497070312 508.97265625 l 2
 332.763671875 509.92578125 340.736328125 518.471679688 331.030273438 503.599609375 c 1
 331.030273438 308.64453125 l 2
 330.509765625 290.498046875 333.630859375 271.6171875 328.778320312 254 c 1
 339.3515625 263.307617188 354.517578125 263.655273438 367.344726562 268.8203125 c 0
 374.970703125 275.493164062 391.784179688 264.521484375 380.170898438 277.2265625 c 1
 380.170898438 497.330078125 l 2
 381.383789062 506.534179688 371.15625 519.811523438 385.370117188 508.978515625 c 1
 599.194335938 508.978515625 l 1
 606.352539062 513.83203125 624.206054688 499.340820312 617.446289062 511.30078125 c 1
 620.045898438 525.954101562 626.979492188 540.607421875 631.139648438 555.25390625 c 1
 630.065429688 555.201171875 l 1
 638.211914062 562.584960938 634.3984375 559.776367188 627.465820312 557.80078125 c 2
 392.114257812 557.80078125 l 2
 383.620117188 560.17578125 369.75390625 547.938476562 379.114257812 562.828125 c 1
 379.114257812 760.736328125 l 2
 379.807617188 778.41796875 376.33984375 796.897460938 381.540039062 813.98828125 c 1
EndSplineSet
Validated: 524329
EndChar

StartChar: percent
Encoding: 37 37 76
Width: 590
GlyphClass: 1
Flags: W
LayerCount: 2
Fore
SplineSet
239.649414062 813.294921875 m 0
 201.512695312 814.739257812 164.900390625 789.096679688 150.795898438 753.447265625 c 0
 134.762695312 708.9921875 122.263671875 663.293945312 107.704101562 618.30859375 c 0
 99.3662109375 588.306640625 86.8876953125 559.1953125 82.2080078125 528.40234375 c 0
 79.0009765625 491.317382812 113.44140625 460.7421875 149.321289062 461.435546875 c 0
 195.514648438 457.458984375 234.879882812 495.1640625 245.799804688 537.919921875 c 0
 265.698242188 601.969726562 285.735351562 665.98046875 305.547851562 730.052734375 c 0
 317.004882812 765.102539062 292.841796875 805.645507812 256.026367188 810.966796875 c 0
 250.577148438 812.328125 245.09765625 813.088867188 239.649414062 813.294921875 c 0
492.971679688 808.734375 m 0
 490.051757812 809.122070312 488.313476562 808.471679688 489.159179688 804.8515625 c 0
 378.243164062 633.880859375 267.327148438 462.91015625 156.411132812 291.9375 c 0
 147.415039062 280.943359375 143.358398438 264.797851562 129.838867188 258.505859375 c 1
 140.4296875 260.065429688 151.072265625 259.411132812 161.819335938 259.544921875 c 0
 169.706054688 263.358398438 186.345703125 252.578125 183.918945312 261.97265625 c 1
 301.438476562 442.528320312 418.958984375 623.083007812 536.479492188 803.638671875 c 1
 543.239257812 808.318359375 l 1
 532.579101562 806.23828125 521.659179688 807.452148438 510.913085938 807.10546875 c 0
 505.983398438 804.559570312 497.836914062 808.087890625 492.971679688 808.734375 c 0
235.745117188 776.599609375 m 0
 252.662109375 777.8125 270.515625 765.821289062 266.875976562 747.220703125 c 0
 250.651367188 689.715820312 231.689453125 632.905273438 214.356445312 575.673828125 c 0
 204.423828125 548.217773438 201.374023438 511.309570312 170.434570312 499.453125 c 0
 149.409179688 490.85546875 115.435546875 503.4375 124.102539062 530.806640625 c 0
 143.168945312 593.793945312 163.118164062 656.52734375 182.514648438 719.416015625 c 0
 189.5 745.119140625 203.920898438 778.662109375 235.745117188 776.599609375 c 0
522.420898438 605.830078125 m 0
 484.310546875 607.28515625 447.7109375 581.713867188 433.606445312 546.130859375 c 0
 416.047851562 497.452148438 402.493164062 447.32421875 386.719726562 398.033203125 c 0
 379.69921875 370.915039062 367.21875 344.798828125 365.485351562 316.61328125 c 0
 364.791992188 279.078125 401.782226562 251.5546875 437.506835938 254.171875 c 0
 482.26171875 252.55859375 518.626953125 289.428710938 529.893554688 330.439453125 c 0
 549.670898438 394.55859375 569.829101562 458.569335938 589.346679688 522.76171875 c 0
 599.850585938 558.015625 575.65234375 598.198242188 538.784179688 603.501953125 c 0
 533.338867188 604.862304688 527.865234375 605.622070312 522.420898438 605.830078125 c 0
518.452148438 569.466796875 m 0
 535.438476562 570.690429688 553.291992188 558.569335938 549.825195312 539.921875 c 0
 534.12109375 482.565429688 515.384765625 425.94140625 498.571289062 368.87109375 c 0
 489.0546875 340.862304688 484.49609375 303.961914062 453.295898438 292.10546875 c 0
 431.993164062 283.37109375 399.19921875 296.810546875 406.999023438 323.84375 c 0
 425.5625 386.228515625 445.618164062 448.2109375 464.754882812 510.44140625 c 0
 472 536.540039062 485.84765625 571.373046875 518.452148438 569.466796875 c 0
EndSplineSet
Validated: 524329
EndChar

StartChar: ampersand
Encoding: 38 38 77
Width: 306
GlyphClass: 1
Flags: MW
HStem: 770.445 43.6348
LayerCount: 2
Fore
SplineSet
247.368164062 814.080078125 m 0
 219.701171875 813.825195312 191.368164062 800.243164062 175.747070312 777.99609375 c 1
 163.301757812 748.848632812 156.541992188 717.41796875 146.315429688 687.3515625 c 0
 135.845703125 664.736328125 145.969726562 641 154.290039062 619.607421875 c 0
 156.0234375 610.369140625 173.927734375 602.602539062 156.022460938 606.572265625 c 1
 128.826171875 595.430664062 104.091796875 575.096679688 87.9716796875 550.09375 c 0
 63.8955078125 510.758789062 55.853515625 464.651367188 41.1201171875 421.466796875 c 0
 28.189453125 386.987304688 23.9248046875 344.10546875 51.1728515625 315.1171875 c 0
 87.2255859375 277.060546875 144.166992188 279.140625 192.301757812 282.884765625 c 0
 215.094726562 286.1953125 241.736328125 286.333984375 260.768554688 299.31640625 c 1
 268.100585938 314.668945312 262.328125 291.014648438 268.047851562 285.796875 c 1
 270.127929688 275.194335938 280.181640625 264.694335938 274.981445312 254 c 1
 283.61328125 260.34375 295.001953125 256.080078125 305.055664062 257.29296875 c 0
 311.19140625 259.892578125 331.297851562 252.995117188 326.618164062 258.333984375 c 0
 318.280273438 275.299804688 313.772460938 294.2734375 307.012695312 312.013671875 c 0
 307.012695312 322.673828125 286.473632812 324.614257812 305.280273438 324.9609375 c 1
 337.104492188 356.39453125 351.040039062 401.94921875 354.506835938 445.6015625 c 1
 354.125976562 445.576171875 l 1
 355.685546875 446.1484375 355.685546875 449.390625 357.418945312 450.77734375 c 1
 354.229492188 449.911132812 339.859375 448.350585938 332.059570312 449.216796875 c 0
 324.67578125 447.241210938 307.516601562 451.989257812 307.516601562 449.736328125 c 0
 310.9140625 425.965820312 301.29296875 399.245117188 289.333007812 378.10546875 c 0
 286.0390625 365.0703125 283.440429688 362.50390625 283.440429688 377.583984375 c 1
 262.137695312 442.4765625 239.465820312 507.0546875 217.643554688 571.826171875 c 1
 219.896484375 581.654296875 196.217773438 588.048828125 213.655273438 586.28125 c 1
 237.80078125 594.512695312 259.831054688 613.270507812 272.831054688 635.56640625 c 0
 287.408203125 666.68359375 294.428710938 700.701171875 305.348632812 733.236328125 c 0
 314.65625 755.203125 314.0859375 783.396484375 293.563476562 799.134765625 c 0
 280.329101562 809.587890625 263.967773438 814.232421875 247.368164062 814.080078125 c 0
241.155273438 770.4453125 m 0
 242.489257812 770.41796875 243.873046875 770.298828125 245.307617188 770.080078125 c 2
 245.375976562 770.080078125 l 2
 250.80078125 769.993164062 267.095703125 770.426757812 265.362304688 759.0390625 c 0
 257.146484375 726.658203125 247.021484375 694.596679688 236.622070312 662.80078125 c 0
 231.837890625 640.827148438 206.375 638.533203125 196.495117188 621.1875 c 1
 201.521484375 635.974609375 189.91015625 648.764648438 187.483398438 662.9609375 c 1
 194.052734375 686.315429688 201.678710938 709.661132812 208.612304688 733.015625 c 0
 212.203125 750.4765625 221.142578125 770.8515625 241.155273438 770.4453125 c 0
175.424804688 570.341796875 m 0
 176.108398438 570.41796875 175.734375 567.876953125 174.239257812 560.34765625 c 0
 198.678710938 489.05078125 223.119140625 417.751953125 247.559570312 346.455078125 c 1
 248.096679688 346.3671875 l 1
 256.260742188 339.697265625 261.98046875 339.087890625 247.940429688 339.607421875 c 1
 212.978515625 326.243164062 174.37890625 323.81640625 136.991210938 325.203125 c 0
 109.240234375 325.017578125 71.5927734375 340.735351562 76.4462890625 374.443359375 c 0
 84.6962890625 408.247070312 96.0322265625 441.31640625 105.565429688 474.814453125 c 0
 113.538085938 508.94921875 131.010742188 542.529296875 163.493164062 559.134765625 c 0
 170.209960938 562.818359375 174.28515625 570.21484375 175.424804688 570.341796875 c 0
EndSplineSet
Validated: 524329
EndChar

StartChar: dollar
Encoding: 36 36 78
Width: 250
GlyphClass: 1
Flags: MW
VStem: 266.606 53.5781
LayerCount: 2
Fore
SplineSet
257.817382812 881.158203125 m 0
 256.76171875 881.036132812 256.588867188 880.147460938 257.801757812 877.859375 c 0
 254.85546875 862.04296875 248.096679688 846.275390625 243.762695312 830.484375 c 1
 237.176757812 824.903320312 247.575195312 804.05078125 237.174804688 815.54296875 c 1
 201.936523438 818.26953125 164.237304688 802.681640625 140.456054688 775.740234375 c 0
 111.006835938 739.981445312 89.33984375 690.7265625 101.819335938 643.966796875 c 0
 115.149414062 591.665039062 164.583007812 562.784179688 192.229492188 519.451171875 c 0
 216.357421875 485.037109375 202.111328125 440.821289062 185.124023438 406.791015625 c 0
 169.974609375 374.606445312 134.596679688 354.291015625 99.0283203125 359.404296875 c 1
 72.958984375 357.015625 46.837890625 377.883789062 53.0771484375 405.708984375 c 0
 56.61328125 426.190429688 59.388671875 449.6796875 72.5615234375 466.25 c 1
 61.970703125 461.830078125 50.1142578125 464.862304688 39.0205078125 463.99609375 c 0
 31.2724609375 459.40234375 13.765625 472.125 18.7919921875 463.12890625 c 1
 10.1259765625 428.200195312 -5.041015625 385.672851562 18.7919921875 352.82421875 c 0
 33.6640625 336.565429688 57.619140625 320.047851562 80.4990234375 325.369140625 c 1
 68.5390625 317.213867188 69.2333984375 301.524414062 64.3798828125 289.11328125 c 0
 59.7001953125 278.25 60.21875 264.44140625 52.2451171875 255.583984375 c 1
 54.810546875 255.930664062 69.6142578125 257.31640625 77.0673828125 256.623046875 c 1
 84.451171875 261.424804688 101.78515625 247.991210938 97.1044921875 257.490234375 c 1
 99.705078125 273.333007812 105.771484375 289.125976562 109.584960938 304.951171875 c 1
 115.305664062 311.520507812 105.078125 331.504882812 117.038085938 319.388671875 c 1
 149.122070312 317.842773438 182.870117188 332.884765625 205.247070312 356.423828125 c 0
 238.0078125 393.099609375 255.16796875 444.030273438 253.434570312 492.86328125 c 0
 249.951171875 546.328125 206.650390625 582.666015625 173.110351562 619.494140625 c 0
 154.1484375 638.79296875 139.762695312 666.612304688 149.989257812 693.8359375 c 1
 157.130859375 728.169921875 178.224609375 764.872070312 215.924804688 770.783203125 c 0
 242.219726562 777.709960938 285.154296875 771.34765625 282.727539062 735.720703125 c 0
 282.034179688 716.76171875 275.446289062 691.810546875 266.606445312 678.39453125 c 1
 282.657226562 682.814453125 299.939453125 679.158203125 316.579101562 680.37109375 c 1
 316.198242188 680.109375 l 1
 320.185546875 678.237304688 323.825195312 673.575195312 320.184570312 680.9765625 c 1
 328.8515625 709.275390625 338.038085938 742.252929688 325.731445312 771.63671875 c 0
 317.065429688 790.3984375 295.91796875 814.474609375 273.262695312 807.40234375 c 1
 284.356445312 815.30078125 284.357421875 829.875976562 288.864257812 841.6796875 c 0
 293.717773438 854.060546875 294.237304688 869.018554688 302.383789062 879.591796875 c 1
 299.87109375 879.245117188 284.998046875 877.859375 277.543945312 878.552734375 c 1
 272.09765625 874.977539062 260.985351562 881.5234375 257.817382812 881.158203125 c 0
EndSplineSet
Validated: 524329
EndChar

StartChar: numbersign
Encoding: 35 35 79
Width: 449
GlyphClass: 1
Flags: MW
HStem: 435.824 44.9434<221.708 282.287 282.287 282.287> 574.375 44.7754
LayerCount: 2
Fore
SplineSet
453.453125 800.974609375 m 1
 443.001953125 796.970703125 431.510742188 799.760742188 420.58984375 798.89453125 c 0
 413.657226562 794.734375 395.9765625 807.21484375 403.4296875 795.427734375 c 1
 386.443359375 740.758789062 369.473632812 686.090820312 352.486328125 631.421875 c 0
 346.419921875 623.5703125 357.341796875 606.477539062 344.16796875 619.1484375 c 1
 263.427734375 619.1484375 l 2
 255.108398438 621.020507812 240.895507812 608.8359375 252.85546875 622.234375 c 1
 267.953125 666.493164062 281.0390625 711.842773438 295.251953125 756.51953125 c 0
 301.145507812 771.114257812 302.185546875 788.267578125 311.71875 800.97265625 c 1
 301.336914062 796.951171875 289.950195312 799.758789062 279.029296875 798.892578125 c 0
 272.02734375 794.559570312 254.866210938 807.3515625 261.10546875 795.42578125 c 1
 244.275390625 741.255859375 227.444335938 687.0859375 210.630859375 632.91796875 c 0
 204.73828125 626.158203125 214.444335938 605.946289062 203.00390625 619.13671875 c 1
 135.197265625 619.13671875 l 2
 124.381835938 620.696289062 111.486328125 615.618164062 102.298828125 622.4296875 c 1
 106.458984375 612.329101562 98.3115234375 602.556640625 96.578125 592.625 c 0
 97.96484375 586.060546875 82.7119140625 568.866210938 92.591796875 573.771484375 c 1
 122.111328125 574.984375 151.940429688 573.946289062 181.580078125 574.29296875 c 0
 189.900390625 572.438476562 205.673828125 585.056640625 193.3671875 571.224609375 c 1
 184.267578125 546.103515625 177.333984375 519.970703125 169.013671875 494.462890625 c 0
 162.947265625 487.859375 172.653320312 467.770507812 161.212890625 480.701171875 c 1
 94.966796875 480.701171875 l 2
 83.3193359375 482.260742188 69.8681640625 477.165039062 59.640625 483.994140625 c 1
 63.80078125 474.509765625 56.8681640625 465.216796875 55.134765625 455.822265625 c 0
 56.1748046875 448.99609375 43.6953125 432.58203125 49.587890625 434.95703125 c 0
 79.5927734375 436.86328125 110.081054688 435.302734375 140.275390625 435.822265625 c 0
 148.942382812 433.967773438 163.848632812 446.69140625 151.71484375 432.755859375 c 1
 136.669921875 388.512695312 123.565429688 343.254882812 109.3515625 298.623046875 c 0
 103.458984375 283.962890625 102.419921875 266.688476562 92.712890625 254 c 1
 102.645507812 258.211914062 113.790039062 255.387695312 124.189453125 256.25390625 c 0
 131.5390625 260.4140625 148.69921875 248.194335938 142.28515625 259.720703125 c 1
 159.272460938 314.389648438 176.2421875 369.057617188 193.228515625 423.7265625 c 0
 199.295898438 431.526367188 188.375 448.772460938 201.375 435.82421875 c 1
 282.287109375 435.82421875 l 2
 291.127929688 433.969726562 304.6484375 446.58984375 292.861328125 432.7578125 c 1
 277.920898438 389.008789062 265.041992188 344.247070312 250.828125 300.107421875 c 0
 244.76171875 284.953125 243.374023438 267.331054688 233.83984375 254.001953125 c 1
 244.22265625 258.30078125 255.78515625 255.389648438 266.705078125 256.255859375 c 0
 273.708007812 260.416015625 291.21484375 247.883789062 284.107421875 259.72265625 c 1
 300.88671875 313.890625 317.61328125 368.05859375 334.42578125 422.228515625 c 1
 342.052734375 428.694335938 330.092773438 448.904296875 342.052734375 436.75390625 c 1
 362.038085938 434.673828125 383.358398438 436.580078125 403.845703125 435.88671875 c 0
 415.494140625 434.327148438 428.772460938 439.28515625 439.171875 432.767578125 c 1
 435.185546875 442.678710938 442.46484375 452.44140625 444.197265625 462.26953125 c 0
 442.46484375 468.981445312 457.892578125 486.506835938 448.01171875 481.2890625 c 1
 419.94921875 480.076171875 391.540039062 481.114257812 363.35546875 480.767578125 c 0
 355.036132812 482.622070312 340.995117188 470.420898438 352.78125 484.009765625 c 1
 361.743164062 509.61328125 368.67578125 536.24609375 376.822265625 562.2421875 c 0
 382.715820312 569.955078125 372.31640625 587.09765625 385.142578125 574.375 c 1
 460.994140625 574.375 l 2
 467.459960938 578.309570312 485.659179688 567.407226562 480.458984375 576.3515625 c 1
 482.366210938 589.543945312 488.780273438 602.760742188 492.419921875 615.96875 c 1
 492.609375 615.91015625 l 1
 492.609375 618.8046875 501.104492188 623.83203125 490.876953125 619.671875 c 0
 462.451171875 618.458984375 433.7109375 619.497070312 405.1796875 619.150390625 c 0
 396.860351562 621.022460938 382.647460938 608.837890625 394.607421875 622.236328125 c 1
 409.826171875 666.989257812 422.948242188 712.833007812 437.333984375 758.005859375 c 0
 443.0546875 772.108398438 443.747070312 788.927734375 453.453125 800.974609375 c 1
237.431640625 578.9296875 m 0
 238.366210938 578.869140625 240.133789062 577.553710938 243.33984375 574.369140625 c 2
 330.3515625 574.369140625 l 1
 330.3359375 574.373046875 l 1
 340.736328125 578.481445312 343.85546875 583.1796875 334.66796875 571.2890625 c 1
 325.672851562 545.71875 318.913085938 519.060546875 310.765625 493.07421875 c 0
 305.045898438 485.482421875 315.272460938 468.201171875 302.4453125 480.767578125 c 1
 221.708007812 480.767578125 l 2
 213.387695312 482.622070312 199.348632812 470.418945312 211.134765625 484.0078125 c 1
 220.114257812 509.60546875 226.873046875 536.241210938 235.020507812 562.234375 c 0
 239.309570312 568.006835938 234.62890625 579.112304688 237.431640625 578.9296875 c 0
EndSplineSet
Validated: 524329
EndChar

StartChar: at
Encoding: 64 64 80
Width: 675
GlyphClass: 1
Flags: MW
HStem: 259.027 52.8652<278.285 555.965 555.965 555.965> 358.174 52.8652<477.532 501.191 477.532 521.906> 372.213 51.6543<307.406 340.773> 601.533 46.4531<384.886 409.846 380.292 419.64> 717.494 52.6934<377.171 540.018>
LayerCount: 2
Fore
SplineSet
459.41796875 770.1875 m 0xd8
 240.671875 770.1875 159.552734375 629.787109375 130.0859375 533.240234375 c 0
 90.2197265625 404.453125 133.551757812 259.02734375 278.28515625 259.02734375 c 2
 555.96484375 259.02734375 l 1
 562.552734375 254 l 1
 559.951171875 261.626953125 l 1
 575.724609375 307.90625 l 1
 580.578125 314.3203125 l 1
 572.951171875 311.892578125 l 1
 278.28515625 311.892578125 l 2
 181.739257812 311.892578125 146.7265625 408.266601562 180.005859375 516.599609375 c 0
 214.845703125 629.786132812 294.924804688 717.494140625 459.41796875 717.494140625 c 0
 620.618164062 717.494140625 611.258789062 654.399414062 583.3515625 558.892578125 c 2
 558.73828125 480.546875 l 2
 540.365234375 421.266601562 512.111328125 411.0390625 490.271484375 411.0390625 c 0xd8
 464.791992188 411.0390625 466.178710938 444.494140625 472.591796875 466.333984375 c 2
 529.099609375 646.599609375 l 1
 534.298828125 653.013671875 l 1
 526.845703125 650.4140625 l 1
 485.24609375 650.4140625 l 1
 480.21875 654.400390625 l 1
 481.951171875 646.599609375 l 1
 470.685546875 606.560546875 l 1
 467.56640625 579.51953125 l 1
 462.365234375 606.560546875 l 1
 447.28515625 640.1875 424.232421875 647.986328125 395.458984375 647.986328125 c 0
 365.125976562 647.986328125 268.231445312 628.573242188 232.3515625 511.2265625 c 0
 206.3515625 431.493164062 251.592773438 372.212890625 315.552734375 372.212890625 c 0xb8
 365.993164062 372.212890625 398.405273438 400.639648438 416.431640625 425.080078125 c 1
 424.232421875 449.51953125 l 1
 422.498046875 422.48046875 l 1
 427.872070312 394.227539062 448.326171875 358.173828125 490.79296875 358.173828125 c 0
 553.01953125 358.173828125 591.15234375 405.838867188 609.3515625 463.732421875 c 1
 608.83203125 463.732421875 l 1
 638.125 558.892578125 l 2
 674.872070312 676.239257812 650.2578125 770.1875 459.41796875 770.1875 c 0xd8
403.779296875 601.533203125 m 0
 435.5 601.533203125 459.938476562 578.306640625 445.03125 528.212890625 c 0
 422.498046875 456.106445312 365.125976562 423.8671875 329.939453125 423.8671875 c 0xb8
 284.873046875 423.8671875 270.833007812 452.120117188 284.873046875 501.173828125 c 0
 305.673828125 564.09375 365.993164062 601.533203125 403.779296875 601.533203125 c 0
EndSplineSet
Validated: 524329
EndChar

StartChar: slash
Encoding: 47 47 81
Width: 328
GlyphClass: 1
Flags: MW
HStem: 889.76 6.24023
LayerCount: 2
Fore
SplineSet
378.2265625 896 m 1
 365.452148438 891.528320312 351.776367188 894.438476562 338.4296875 893.572265625 c 1
 330.907226562 888.75390625 316.000976562 902.741210938 318.947265625 890.798828125 c 1
 218.154296875 678.34375 117.341796875 465.892578125 16.548828125 253.4375 c 0
 7.6396484375 237.844726562 3.48046875 219.0625 -9 205.958984375 c 1
 4.0341796875 210.864257812 18.14453125 207.694335938 31.837890625 208.560546875 c 1
 39.013671875 213.362304688 55.654296875 199.373046875 49.4140625 211.16015625 c 1
 156.829101562 437.360351562 264.225585938 663.559570312 371.640625 889.759765625 c 1
 371.986328125 889.759765625 l 1
 378.2265625 896 l 1
EndSplineSet
Validated: 524329
EndChar

StartChar: zero
Encoding: 48 48 82
Width: 389
GlyphClass: 1
Flags: MW
HStem: 254 47.2344<130.995 189.744 130.995 194.27> 848.766 47.2344<285.69 337.55>
LayerCount: 2
Fore
SplineSet
314.5234375 896 m 0
 256.857421875 896 189.348632812 878.090820312 154.512695312 764.333984375 c 2
 50.9912109375 429.162109375 l 2
 12.61328125 304.973632812 71.2626953125 254 157.26953125 254 c 0
 231.270507812 254 292.676757812 288.44140625 322.198242188 384.2890625 c 2
 431.036132812 733.434570312 l 2
 441.270507812 766.892578125 456.622070312 896 314.5234375 896 c 0
310.586914062 848.765625 m 0
 364.513671875 848.765625 402.693359375 825.54296875 372.1875 723.397460938 c 2
 269.6484375 390.784179688 l 2
 250.557617188 329.182617188 215.919921875 301.234375 163.567382812 301.234375 c 0
 98.4228515625 301.234375 77.7578125 339.612304688 108.658203125 439.396484375 c 2
 210.801757812 770.827148438 l 2
 224.97265625 815.700195312 255.873046875 848.765625 310.586914062 848.765625 c 0
EndSplineSet
Validated: 524329
EndChar

StartChar: one
Encoding: 49 49 83
Width: 420
GlyphClass: 1
Flags: MW
HStem: 892.184 21G<317.178 361.543 317.178 317.178>
LayerCount: 2
Fore
SplineSet
311.958984375 896 m 1
 311.958984375 890.779296875 l 1
 287.266601562 864.8828125 238.88671875 835.974609375 205.16015625 817.907226562 c 1
 199.73828125 820.31640625 l 1
 201.747070312 815.296875 l 1
 186.088867188 764.307617188 l 1
 179.462890625 755.272460938 l 1
 189.90234375 760.493164062 l 2
 212.185546875 769.52734375 244.708007812 785.18359375 273.213867188 803.452148438 c 1
 294.493164062 828.14453125 l 1
 280.0390625 799.4375 l 1
 114.419921875 262.030273438 l 1
 109 255.404296875 l 1
 116.627929688 258.213867188 l 1
 166.413085938 258.213867188 l 1
 171.432617188 254 l 1
 171.432617188 262.030273438 l 1
 365.759765625 888.168945312 l 1
 364.153320312 888.168945312 l 1
 369.372070312 894.99609375 l 1
 361.54296875 892.18359375 l 1
 317.177734375 892.18359375 l 1
 311.958984375 896 l 1
EndSplineSet
Validated: 524297
EndChar

StartChar: two
Encoding: 50 50 84
Width: 403
GlyphClass: 1
Flags: MW
HStem: 848.219 47.7812<291.085 337.075>
VStem: 391.229 56.3428<782.02 805.514 755.641 816.363>
LayerCount: 2
Fore
SplineSet
329.708984375 896 m 0
 244.099609375 896 185.96484375 855.784179688 161.4765625 726.57421875 c 1
 156.30078125 721.19921875 l 1
 164.065429688 723.985351562 l 1
 215.829101562 723.985351562 l 1
 222.200195312 718.809570312 l 1
 220.209960938 726.57421875 l 1
 232.155273438 792.473632812 258.036132812 848.21875 324.133789062 848.21875 c 0
 350.015625 848.21875 391.228515625 836.471679688 391.228515625 796.254882812 c 0
 391.228515625 767.78515625 375.900390625 700.692382812 302.037109375 619.064453125 c 2
 22.5107421875 305.892578125 l 1
 8.375 260.69921875 l 1
 3 254.12890625 l 1
 10.7646484375 256.717773438 l 1
 295.666015625 256.717773438 l 1
 300.840820312 253.1328125 l 1
 298.8515625 260.69921875 l 1
 313.383789062 303.502929688 l 1
 318.362304688 309.874023438 l 1
 310.794921875 307.087890625 l 1
 100.952148438 307.087890625 l 1
 82.8349609375 301.91015625 l 1
 98.365234375 313.65625 l 1
 318.362304688 556.948242188 l 1
 319.158203125 556.948242188 l 1
 409.944335938 656.494140625 447.571289062 722.591796875 447.571289062 788.690429688 c 0
 447.571289062 822.336914062 433.236328125 896 329.708984375 896 c 0
EndSplineSet
Validated: 524297
EndChar

StartChar: three
Encoding: 51 51 85
Width: 389
GlyphClass: 1
Flags: MW
HStem: 254 43.2773<135.641 182.292 135.641 199.661> 563.289 52.4072<214.053 217.429 217.429 228.147 214.053 243.633> 849.945 46.0547<274.898 336.835>
VStem: 34 58.166<335.193 360.207>
LayerCount: 2
Fore
SplineSet
308.149414062 896 m 0
 197.1796875 896 158.66796875 805.079101562 145.962890625 732.025390625 c 1
 140.602539062 725.672851562 l 1
 148.145507812 728.25390625 l 1
 197.180664062 728.25390625 l 1
 201.9453125 724.482421875 l 1
 199.958984375 732.025390625 l 1
 214.052734375 797.138671875 242.44140625 849.9453125 307.35546875 849.9453125 c 0
 366.314453125 849.9453125 382.79296875 819.173828125 354.801757812 729.643554688 c 0
 329.193359375 646.46484375 305.965820312 615.696289062 228.147460938 615.696289062 c 2
 214.052734375 615.696289062 l 1
 207.700195312 619.467773438 l 1
 209.686523438 611.922851562 l 1
 195.591796875 567.256835938 l 1
 190.62890625 560.90625 l 1
 198.370117188 563.2890625 l 1
 217.428710938 563.2890625 l 2
 269.836914062 563.2890625 313.11328125 553.1640625 269.8359375 411.225585938 c 0
 243.235351562 321.893554688 209.686523438 297.27734375 154.896484375 297.27734375 c 0
 116.384765625 297.27734375 92.166015625 316.731445312 92.166015625 353.655273438 c 0
 92.166015625 375.4921875 101.099609375 406.262695312 111.223632812 435.444335938 c 1
 116.383789062 441.994140625 l 1
 108.841796875 439.415039062 l 1
 59.0126953125 439.415039062 l 1
 52.462890625 443.385742188 l 1
 54.447265625 435.444335938 l 1
 42.93359375 405.071289062 34 370.331054688 34 350.083007812 c 0
 34 316.732421875 51.8662109375 254 155.491210938 254 c 0
 243.831054688 254 296.041015625 290.924804688 331.97265625 406.26171875 c 0
 366.315429688 521.203125 333.163085938 559.713867188 299.61328125 581.3515625 c 1
 274.40234375 587.704101562 l 1
 299.018554688 587.704101562 l 1
 355.595703125 600.409179688 383.586914062 621.055664062 414.356445312 718.129882812 c 0
 446.317382812 820.365234375 414.35546875 896 308.149414062 896 c 0
EndSplineSet
Validated: 524329
EndChar

StartChar: four
Encoding: 52 52 86
Width: 397
GlyphClass: 1
Flags: MW
HStem: 891.783 21G<355.078 429.357 355.078 355.078>
LayerCount: 2
Fore
SplineSet
351.0625 896 m 1
 351.0625 889.374023438 l 1
 31.4697265625 467.798828125 l 1
 18.21875 423.633789062 l 1
 13 417.008789062 l 1
 20.8291015625 419.8203125 l 1
 228.404296875 419.8203125 l 1
 240.249023438 423.633789062 l 1
 232.419921875 413.194335938 l 1
 185.443359375 261.829101562 l 1
 180.225585938 255.203125 l 1
 188.053710938 257.813476562 l 1
 237.439453125 257.813476562 l 1
 242.859375 254 l 1
 240.852539062 261.829101562 l 1
 286.421875 415.603515625 l 1
 284.012695312 426.04296875 l 1
 293.047851562 419.8203125 l 1
 357.086914062 419.8203125 l 1
 362.106445312 415.603515625 l 1
 360.09765625 423.633789062 l 1
 371.94140625 462.779296875 l 1
 377.162109375 467.798828125 l 1
 369.331054688 465.389648438 l 1
 308.103515625 465.389648438 l 1
 296.05859375 461.374023438 l 1
 303.887695312 471.813476562 l 1
 430.560546875 888.370117188 l 1
 431.96484375 888.370117188 l 1
 437.186523438 894.595703125 l 1
 429.357421875 891.783203125 l 1
 355.078125 891.783203125 l 1
 351.0625 896 l 1
374.551757812 865.887695312 m 1
 360.09765625 825.537109375 l 1
 249.283203125 470.409179688 l 1
 251.692382812 459.969726562 l 1
 243.86328125 465.389648438 l 1
 97.91796875 465.389648438 l 1
 79.4482421875 461.374023438 l 1
 93.90234375 473.21875 l 1
 353.672851562 827.946289062 l 1
 374.551757812 865.887695312 l 1
EndSplineSet
Validated: 524297
EndChar

StartChar: five
Encoding: 53 53 87
Width: 385
GlyphClass: 1
Flags: MW
HStem: 254 45.5166<154.354 202.852 154.354 207.225> 626.082 43.9258<274.406 298.357> 892.222 21G<216.369 454.088 216.369 216.369>
VStem: 51 56.0498<339.168 362.523>
LayerCount: 2
Fore
SplineSet
211.200195312 896 m 1
 213.188476562 888.249023438 l 1
 105.858398438 542.205078125 l 1
 100.688476562 537.036132812 l 1
 108.440429688 539.620117188 l 1
 150.975585938 539.620117188 l 1
 157.735351562 534.25390625 l 1
 154.951171875 542.205078125 l 1
 178.206054688 604.21875 228.69140625 626.08203125 268.642578125 626.08203125 c 0
 328.072265625 626.08203125 335.82421875 580.963867188 301.041015625 470.849609375 c 0
 258.307617188 332.709960938 235.25 299.516601562 170.454101562 299.516601562 c 0
 138.254882812 299.516601562 107.049804688 315.01953125 107.049804688 349.603515625 c 0
 107.049804688 380.809570312 114.801757812 409.033203125 126.7265625 441.232421875 c 1
 131.697265625 447.791992188 l 1
 123.9453125 445.407226562 l 1
 75.0498046875 444.016601562 l 1
 68.2919921875 449.18359375 l 1
 70.279296875 441.232421875 l 1
 57.359375 403.865234375 51 371.666015625 51 353.379882812 c 0
 51 324.95703125 67.6943359375 254 167.2734375 254 c 0
 247.17578125 254 302.829101562 292.759765625 353.314453125 454.352539062 c 0
 370.010742188 512.390625 377.762695312 557.509765625 377.762695312 574.404296875 c 0
 377.762695312 592.491210938 366.233398438 670.0078125 287.325195312 670.0078125 c 0
 261.486328125 670.0078125 230.6796875 660.865234375 202.057617188 645.560546875 c 1
 181.584960938 622.106445312 l 1
 195.697265625 649.3359375 l 1
 253.735351562 841.9375 l 1
 251.349609375 852.270507812 l 1
 260.294921875 847.103515625 l 1
 440.969726562 847.103515625 l 1
 447.52734375 841.9375 l 1
 445.142578125 849.688476562 l 1
 457.86328125 888.249023438 l 1
 456.671875 888.249023438 l 1
 461.838867188 895.005859375 l 1
 454.087890625 892.221679688 l 1
 216.369140625 892.221679688 l 1
 211.200195312 896 l 1
EndSplineSet
Validated: 524329
EndChar

StartChar: six
Encoding: 54 54 88
Width: 390
GlyphClass: 1
Flags: MW
HStem: 254 45.0762<142.083 198.379 142.083 212.082> 607.069 44.8789<263.315 275.129> 853.9 42.0996<316.335 352.675>
VStem: 396.261 52.624<792.64 814.882>
LayerCount: 2
Fore
SplineSet
334.90234375 896 m 0
 297.768554688 896 206.818359375 889.64453125 157.173828125 728.598632812 c 2
 66.6240234375 431.924804688 l 2
 25.3203125 301.459960938 91.84375 254 172.465820312 254 c 0
 251.698242188 254 299.159179688 296.295898438 333.512695312 398.5625 c 2
 360.518554688 485.540039062 l 2
 386.134765625 570.133789062 370.646484375 651.948242188 276.124023438 651.948242188 c 0
 250.506835938 651.948242188 217.34375 642.8125 190.336914062 628.912109375 c 1
 166.111328125 605.6796875 l 1
 184.181640625 633.876953125 l 1
 203.24609375 697.8203125 l 2
 247.92578125 841.193359375 295.385742188 853.900390625 333.512695312 853.900390625 c 0
 371.837890625 853.900390625 396.260742188 830.8671875 396.260742188 798.896484375 c 0
 396.260742188 779.633789062 388.517578125 757.987304688 378.389648438 732.37109375 c 1
 373.227539062 726.018554688 l 1
 380.971679688 728.598632812 l 1
 429.423828125 728.598632812 l 1
 435.779296875 724.626953125 l 1
 433.793945312 732.37109375 l 1
 434.78515625 732.37109375 l 1
 444.913085938 765.731445312 448.884765625 784.995117188 448.884765625 800.28515625 c 0
 448.884765625 834.639648438 430.815429688 896 334.90234375 896 c 0
252.094726562 607.069335938 m 0
 298.1640625 607.069335938 333.91015625 582.842773438 308.29296875 498.249023438 c 2
 282.874023438 415.244140625 l 2
 256.06640625 332.23828125 223.896484375 299.076171875 172.862304688 299.076171875 c 0
 111.302734375 299.076171875 90.8505859375 338.592773438 119.047851562 430.732421875 c 2
 149.828125 530.618164062 l 2
 172.86328125 600.715820312 227.668945312 607.069335938 252.094726562 607.069335938 c 0
EndSplineSet
Validated: 524329
EndChar

StartChar: seven
Encoding: 55 55 89
Width: 415
GlyphClass: 1
Flags: MW
HStem: 892.187 21G<195.366 457.546 195.366 195.366>
LayerCount: 2
Fore
SplineSet
188.740234375 896 m 1
 191.350585938 888.170898438 l 1
 177.09765625 845.008789062 l 1
 171.677734375 838.987304688 l 1
 179.506835938 841.396484375 l 1
 380.45703125 841.396484375 l 1
 397.521484375 846.614257812 l 1
 384.272460938 834.770507812 l 1
 52.8330078125 262.030273438 l 1
 44 255.404296875 l 1
 55.443359375 258.216796875 l 1
 118.27734375 258.216796875 l 1
 123.498046875 254 l 1
 121.489257812 260.625976562 l 1
 441.286132812 829.551757812 l 1
 459.553710938 888.170898438 l 1
 460.15625 888.170898438 l 1
 465.374023438 894.99609375 l 1
 457.545898438 892.186523438 l 1
 195.366210938 892.186523438 l 1
 188.740234375 896 l 1
EndSplineSet
Validated: 524297
EndChar

StartChar: eight
Encoding: 56 56 90
Width: 391
GlyphClass: 1
Flags: MW
HStem: 254 46.2217<133.634 193.527 133.634 200.806> 565.952 24.3906<168.056 255.683> 587.588 24.585<227.458 315.182> 848.598 47.4023<294.626 338.685>
VStem: 294.725 54.877<500.946 523.172> 376.353 52.5156<790.966 808.275>
LayerCount: 2
Fore
SplineSet
316.360351562 896 m 0xbc
 272.891601562 896 196.181640625 879.282226562 157.827148438 756.546875 c 0
 127.33984375 660.561523438 134.815429688 628.696289062 170.61328125 596.83203125 c 1
 192.249023438 590.342773438 l 1
 168.055664062 590.342773438 l 1xdc
 120.653320312 575.000976562 87.6103515625 551.987304688 52.9931640625 437.90625 c 0
 6.966796875 292.354492188 82.49609375 254 163.139648438 254 c 0
 238.47265625 254 290.98828125 283.502929688 330.5234375 407.41796875 c 0
 340.5546875 442.036132812 349.6015625 486.684570312 349.6015625 505.959960938 c 0
 349.6015625 542.938476562 334.26171875 567.526367188 313.805664062 580.114257812 c 1
 288.235351562 587.587890625 l 1
 315.181640625 587.587890625 l 1
 352.356445312 596.83203125 387.956054688 631.25390625 410.96875 702.849609375 c 0
 418.639648438 724.485351562 428.868164062 769.1328125 428.868164062 794.703125 c 0
 428.868164062 833.451171875 404.674804688 896 316.360351562 896 c 0xbc
316.360351562 848.59765625 m 0
 361.009765625 848.59765625 376.352539062 817.913085938 376.352539062 798.63671875 c 0
 376.352539062 783.294921875 375.170898438 771.888671875 357.46875 716.814453125 c 0
 327.965820312 621.026367188 295.90625 612.172851562 258.732421875 612.172851562 c 0xbc
 196.184570312 612.172851562 180.64453125 644.038085938 210.344726562 741.203125 c 0
 233.161132812 815.159179688 264.041015625 848.59765625 316.360351562 848.59765625 c 0
228.244140625 565.952148438 m 0xdc
 283.12109375 565.952148438 294.724609375 537.825195312 294.724609375 508.518554688 c 0
 294.724609375 493.373046875 290.987304688 467.60546875 276.62890625 422.759765625 c 0
 249.87890625 339.559570312 229.2265625 300.221679688 157.827148438 300.221679688 c 0
 109.44140625 300.221679688 76.0048828125 324.217773438 105.508789062 422.759765625 c 0
 145.043945312 553.166015625 183.3984375 565.952148438 228.244140625 565.952148438 c 0xdc
EndSplineSet
Validated: 524329
EndChar

StartChar: nine
Encoding: 57 57 91
Width: 391
GlyphClass: 1
Flags: MW
HStem: 254 43.4688<127.968 169.47 127.968 176.944> 505.96 43.4688<202.416 219.823> 851.155 44.8447<279.813 335.28>
VStem: 31 52.123<333.266 356.378 330.808 357.754>
LayerCount: 2
Fore
SplineSet
308.137695312 896 m 0
 228.87109375 896 180.287109375 853.514648438 147.046875 751.431640625 c 2
 120.297851562 665.67578125 l 2
 93.5478515625 581.491210938 115.379882812 505.959960938 207.038085938 505.959960938 c 0
 232.608398438 505.959960938 267.224609375 514.811523438 292.991210938 529.95703125 c 1
 313.250976562 551.986328125 l 1
 299.286132812 525.041015625 l 1
 260.930664062 398.37109375 l 2
 236.540039062 319.301757812 191.892578125 297.46875 147.046875 297.46875 c 0
 108.888671875 297.46875 83.123046875 314.384765625 83.123046875 347.231445312 c 0
 83.123046875 365.524414062 92.1689453125 406.23828125 101.020507812 433.185546875 c 1
 106.333007812 439.282226562 l 1
 98.46484375 436.921875 l 1
 50.078125 436.921875 l 1
 44.96484375 440.659179688 l 1
 44.96484375 433.185546875 l 1
 34.93359375 398.37109375 31 365.5234375 31 349.984375 c 0
 31 316.546875 49.0947265625 254 144.883789062 254 c 0
 209.004882812 254 276.666992188 274.455078125 307.154296875 375.5546875 c 1
 308.137695312 375.5546875 l 1
 414.350585938 718.19140625 l 2
 455.065429688 848.59765625 387.6015625 896 308.137695312 896 c 0
304.595703125 851.155273438 m 0
 365.963867188 851.155273438 386.6171875 812.798828125 358.490234375 719.370117188 c 2
 331.34765625 631.25390625 l 2
 309.7109375 562.21484375 249.916015625 549.428710938 225.526367188 549.428710938 c 0
 179.3046875 549.428710938 144.883789062 568.509765625 170.453125 651.709960938 c 2
 196.219726562 736.08984375 l 2
 222.7734375 819.290039062 255.030273438 851.155273438 304.595703125 851.155273438 c 0
EndSplineSet
Validated: 524329
EndChar

StartChar: hyphen
Encoding: 45 45 92
Width: 352
GlyphClass: 1
Flags: W
LayerCount: 2
Fore
SplineSet
42.267578125 540.068359375 m 1
 44.521484375 533.134765625 l 1
 35.5078125 488.416015625 l 1
 31 482.521484375 l 1
 37.76171875 484.94921875 l 1
 341.787109375 484.94921875 l 1
 348.375 481.482421875 l 1
 346.640625 488.416015625 l 1
 355.654296875 533.134765625 l 1
 359.98828125 538.85546875 l 1
 353.2265625 536.6015625 l 1
 47.640625 536.6015625 l 1
 42.267578125 540.068359375 l 1
EndSplineSet
Validated: 524297
EndChar

StartChar: parenleft
Encoding: 40 40 93
Width: 195
GlyphClass: 1
Flags: MW
HStem: 722.066 3.4668<270.533 301.039 270.533 301.039> 722.066 5.7207<300.52 306.586 301.039 306.586>
LayerCount: 2
Fore
SplineSet
266.025390625 729 m 1x80
 264.29296875 723.279296875 l 1
 206.919921875 650.1328125 156.1328125 557.74609375 119.0390625 474.373046875 c 0
 71.19921875 363.959960938 61.4931640625 211.946289062 69.466796875 84.373046875 c 1
 66 77.787109375 l 1
 72.93359375 82.29296875 l 1
 104.306640625 82.29296875 l 1
 111.06640625 77.787109375 l 1
 106.55859375 84.373046875 l 1
 95.2919921875 313.346679688 194.786132812 534.172851562 300.51953125 722.06640625 c 1
 301.0390625 722.06640625 l 1
 306.5859375 727.787109375 l 1x40
 298.61328125 725.533203125 l 1
 270.533203125 725.533203125 l 1
 266.025390625 729 l 1x80
EndSplineSet
Validated: 524329
EndChar

StartChar: parenright
Encoding: 41 41 94
Width: 191
GlyphClass: 1
Flags: W
LayerCount: 2
Fore
SplineSet
129 729 m 1
 133.5078125 722.068359375 l 1
 144.774414062 494.655273438 45.626953125 273.828125 -60.453125 84.375 c 1
 -66 80.041015625 l 1
 -58.025390625 82.294921875 l 1
 -29.7734375 82.294921875 l 1
 -25.439453125 77.787109375 l 1
 -23.70703125 84.375 l 1
 34.0126953125 156.481445312 84.4541015625 248.868164062 121.720703125 333.28125 c 0
 169.560546875 444.041015625 179.266601562 596.0546875 171.29296875 722.068359375 c 1
 170.599609375 722.068359375 l 1
 173.89453125 729 l 1
 167.134765625 725.53515625 l 1
 135.759765625 725.53515625 l 1
 129 729 l 1
EndSplineSet
Validated: 524329
EndChar

